<svg id="圖層_2" data-name="圖層 2" xmlns="http://www.w3.org/2000/svg" viewBox="0 0 102.81 32.79"><defs><style>.cls-1{fill:#fff;}.cls-2{isolation:isolate;}</style></defs><path class="cls-1" d="M12.49,14.6v.58c0,.13-.43.47-1.16.64,1.07,2.34.66,4.1-.22,4.81A1.38,1.38,0,0,1,9,20.11a1.47,1.47,0,0,1,.86-1.82A3.14,3.14,0,0,0,11,15.86a3.79,3.79,0,0,1-.58.05H10V7.56c-.35.27-.71.53-1.07.77l-.26-.17A24.34,24.34,0,0,0,11.56.41l3.63,1.05c-.08.28-.34.45-.83.47-.22.43-.43.86-.67,1.27h.77l1.4-1.36L18.2,4c-.17.19-.39.23-.84.26-.75.62-2,1.58-2.92,2.23h2.08l1.12-1.16L19.72,7a1.58,1.58,0,0,1-.79.41v7.4a3.71,3.71,0,0,1-2,.54h-.45V14.6Zm.84-10.8A17.33,17.33,0,0,1,11.65,6l1.12.43H14c.19-.77.45-1.85.62-2.64Zm-.84,6.25h1V7h-1Zm0,3.95h1V10.65h-1ZM12.81,16c3.67,2.68,1.14,5.84-.28,4a9.38,9.38,0,0,0,0-3.88Zm1.95-.13c4.51,2,2.21,5.54.54,3.82a8.36,8.36,0,0,0-.77-3.71ZM15.45,7v3h1V7Zm1,7V10.65h-1V14Zm.45,1.63C22.21,16.79,20,21,18,19.23a5.33,5.33,0,0,0-1.29-3.47Zm10.29-3.31s1.56,1.29,2.49,2.17c-.07.24-.3.34-.61.34H25.24v5.33c0,.17-.88.73-2.36.73h-.54V14.83h-3l-.17-.6h3.2v-4H19.7l-.17-.6h2.81V5.88h-3l-.17-.6h4.6A29.91,29.91,0,0,0,24.81.49l3.59.9c-.07.26-.33.45-.8.45a25.17,25.17,0,0,1-3.33,3.44h1.25l1.35-1.8s1.57,1.22,2.47,2.06c0,.23-.28.34-.58.34H25.24V9.6h.15l1.37-1.92S28.33,9,29.23,9.85c-.06.24-.28.35-.6.35H25.24v4h.58ZM19.34.66c6,1.21,3.45,5.89,1.11,3.89A6.47,6.47,0,0,0,19.14.77Z"/><path class="cls-1" d="M38,10.09l2.71,2.08a1.31,1.31,0,0,1-.84.45v6.87a4.26,4.26,0,0,1-2.47.82h-.52V18.4H34.51v1.35c0,.28-1.26.94-2.51.94h-.43V10.37l3,1.18h2ZM36.87,17.8V12.15H34.51V17.8ZM38,9.36c0,.28-1.38,1-2.66,1h-.45V1L38.1,2.23h5L44.5.73l2.81,2.12a1.38,1.38,0,0,1-.86.48V9.27a4.55,4.55,0,0,1-2.58.82h-.53V8.26H38Zm0-6.53V7.66h5.37V2.83Zm12.79,9.34a1.41,1.41,0,0,1-.85.47v7.07a5.24,5.24,0,0,1-2.54.68h-.51v-2H44.32v1.35c0,.28-1.26.94-2.51.94h-.43V10.37l3,1.18h2.21L48,10.07Zm-3.9,5.63V12.15H44.32V17.8Z"/><path class="cls-1" d="M69.7,1.35s1.65,1.29,2.57,2.19c-.06.24-.3.34-.6.34H67.36V5.43c0,.24-1.16.58-2.6.58h-.49V3.88h-4.6V5.09l3.42,1.26c-.11.28-.39.45-1.1.45a8.37,8.37,0,0,1-.64.71h3.5L66.37,6l2.81,2.38c-.17.22-.53.3-1.14.35a19.43,19.43,0,0,1-6.13,5.09h4l1.35-1.49,2.82,2.11a1.36,1.36,0,0,1-.84.47v5.11a5.78,5.78,0,0,1-2.58.67h-.53V19.3H60.1v.81c0,.2-.92.84-2.47.84h-.56V15.82a35.44,35.44,0,0,1-4.44,1l-.13-.26a34.17,34.17,0,0,0,4.57-2.06V12.62l2,.73a20.49,20.49,0,0,0,5.64-5.24h-4a14.49,14.49,0,0,1-1.31,1.08c4.15.71,1.53,3.93-.34,2.25a3.79,3.79,0,0,0-.32-1.78,18.56,18.56,0,0,1-5.39,2.58l-.13-.15A18.31,18.31,0,0,0,58.66,6a6.71,6.71,0,0,1-1.52.17h-.5V3.88H52l-.15-.6h4.76V.58L60.42.9c0,.28-.19.49-.75.58v1.8h4.6V.58L68.09.9c0,.28-.17.49-.73.58v1.8h.92Zm-9,13.1-.6.28v4h6.06V14.45Z"/><path class="cls-1" d="M85.65,6a2.27,2.27,0,0,1-.78.17c2,2.36,6.08,3.31,9.19,3.67v.35a3.69,3.69,0,0,0-2.25,3c-3.46-1.31-6-3.41-7.26-6.8-2,3.22-6.48,6.29-11.27,7.62l-.11-.24a19.84,19.84,0,0,0,7.75-7.64,6,6,0,0,1-2,.3h-.49V4H73.84l-.15-.6h4.79V.6l3.75.32c0,.28-.17.49-.73.58V3.43h4.15V.6l3.84.32c0,.28-.19.49-.75.58V3.43h1l1.41-2s1.66,1.33,2.56,2.23c-.05.24-.28.34-.58.34H88.74v1.7c0,.24-1.16.62-2.6.62h-.49Zm-3.72,9.64c-.1.22-.3.37-.81.3a14.09,14.09,0,0,1-6.51,4.17l-.15-.24a14.44,14.44,0,0,0,4.08-6Zm3.4-2.32v4.34c0,2-.46,3-3.65,3.28a4,4,0,0,0-.43-2,2.27,2.27,0,0,0-1.68-.91v-.28s1.89.13,2.3.13.36-.08.36-.3V13.35H77.47l-.17-.6h4.93v-2.7l3.78.3c0,.32-.23.47-.68.53v1.87h.34l1.42-1.89s1.58,1.27,2.53,2.15c-.07.23-.3.34-.6.34Zm.32-7.77V4H81.5v.69l0-.15Zm.21,8.91c8.18.64,6.46,6.57,3.37,4.94a16.5,16.5,0,0,0-3.52-4.81Z"/><g class="cls-2"><path class="cls-1" d="M33.64,25.51h-.33a4.42,4.42,0,0,0,.1-.68.33.33,0,0,0-.14-.3.94.94,0,0,0-.53-.1H31c0,.09-.09.34-.2.73-.22.81-.39,1.47-.5,2h1.2a1.17,1.17,0,0,0,.57-.09.84.84,0,0,0,.21-.44h.33c-.12.52-.23,1.07-.33,1.64h-.34c0-.24,0-.38,0-.42a.22.22,0,0,0-.14-.22,1.57,1.57,0,0,0-.47-.06H30.17c-.12.58-.27,1.21-.47,1.88s-.36,1.19-.49,1.55a4.86,4.86,0,0,0,.88.09,4,4,0,0,0,.49,0l-.1.36h-.33l-.86,0-.72,0a8.28,8.28,0,0,0-1.27.11l.07-.34a2.34,2.34,0,0,0,.73-.25,1,1,0,0,0,.26-.32,18.16,18.16,0,0,0,.72-2.37L30,24.43a3,3,0,0,0-1.44.37,2.79,2.79,0,0,0-1,.94,2.33,2.33,0,0,0-.37,1.2,1.77,1.77,0,0,0,.07.5,1.37,1.37,0,0,0,.17.41,1.28,1.28,0,0,1,.18.47.31.31,0,0,1-.11.23.4.4,0,0,1-.27.09.45.45,0,0,1-.4-.26,1.92,1.92,0,0,1-.21-1,3.36,3.36,0,0,1,1-2.32A3.29,3.29,0,0,1,30.17,24h2.37c.26,0,.55,0,.87-.05a5.3,5.3,0,0,0,.61-.13C33.81,24.71,33.68,25.27,33.64,25.51Z"/><path class="cls-1" d="M34.77,31.34h-.92l.43-1.68c.21-.83.4-1.61.55-2.36a2.17,2.17,0,0,0,.06-.34c0-.1,0-.15-.14-.15a.58.58,0,0,0-.28.13,5.48,5.48,0,0,0-.69.63l-.19-.22a4.53,4.53,0,0,1,1.18-1,2,2,0,0,1,.9-.32.27.27,0,0,1,.18.05.16.16,0,0,1,.06.13,3.54,3.54,0,0,1-.08.44l-.27,1.12A8.57,8.57,0,0,1,37,26.1a1.06,1.06,0,0,1,.63-.33.43.43,0,0,1,.31.12.38.38,0,0,1,.12.28.38.38,0,0,1-.12.29,1.85,1.85,0,0,1-.6.28,2.69,2.69,0,0,0-.74.38,3.47,3.47,0,0,0-.63.67,3.58,3.58,0,0,0-.48.78,12.22,12.22,0,0,0-.41,1.56Z"/><path class="cls-1" d="M40.65,29.77l.2.27a4.14,4.14,0,0,1-2.59,1.46.81.81,0,0,1-.67-.3,1.61,1.61,0,0,1-.23-1,5.19,5.19,0,0,1,.8-2.67,2.56,2.56,0,0,1,2.15-1.5.9.9,0,0,1,.67.22.78.78,0,0,1,.23.61,1.4,1.4,0,0,1-.27.8,3.43,3.43,0,0,1-1,.82c-.23.14-.74.38-1.52.74a3.74,3.74,0,0,0-.06.65,1.07,1.07,0,0,0,.14.62.5.5,0,0,0,.4.17,1.4,1.4,0,0,0,.56-.14A8.4,8.4,0,0,0,40.65,29.77Zm-2.16-.91a4.74,4.74,0,0,0,1.49-1,1,1,0,0,0,.34-.72.65.65,0,0,0-.14-.43.47.47,0,0,0-.36-.16.68.68,0,0,0-.44.18,1.65,1.65,0,0,0-.49.7A6.53,6.53,0,0,0,38.49,28.86Z"/><path class="cls-1" d="M44.42,26.08a1.45,1.45,0,0,1,.84.21.62.62,0,0,1,.3.5.44.44,0,0,1-.12.3.45.45,0,0,1-.31.12.39.39,0,0,1-.2-.05,1.38,1.38,0,0,1-.25-.27.8.8,0,0,0-.6-.4.61.61,0,0,0-.45.19.71.71,0,0,0-.19.49,1.11,1.11,0,0,0,.12.5,4.62,4.62,0,0,0,.63.78,2.13,2.13,0,0,1,.68,1.4A1.49,1.49,0,0,1,44.32,31a2,2,0,0,1-1.43.5,1.7,1.7,0,0,1-1.1-.3,1,1,0,0,1-.35-.75.48.48,0,0,1,.13-.36.43.43,0,0,1,.34-.15.4.4,0,0,1,.29.12.37.37,0,0,1,.12.27v.16a.76.76,0,0,0,0,.14.44.44,0,0,0,.17.35.67.67,0,0,0,.46.15,1.34,1.34,0,0,0,.58-.12.91.91,0,0,0,.4-.35.94.94,0,0,0,.14-.46.88.88,0,0,0-.14-.45,5,5,0,0,0-.59-.75,2.14,2.14,0,0,1-.64-1.39,1.4,1.4,0,0,1,.49-1.07A1.7,1.7,0,0,1,44.42,26.08Z"/><path class="cls-1" d="M50.7,30l.16.23a5.41,5.41,0,0,1-1.17,1,1.33,1.33,0,0,1-.67.25.44.44,0,0,1-.35-.17,1,1,0,0,1-.13-.55,3.53,3.53,0,0,1,.1-.72c.07-.32.26-1,.58-2.06a6.37,6.37,0,0,0,.21-.91.18.18,0,0,0-.21-.2,1.22,1.22,0,0,0-.65.27,3.83,3.83,0,0,0-1,.92,2.88,2.88,0,0,0-.42,1.06l-.49,2.19h-.92c.2-.73.35-1.33.46-1.79l.9-4a5.16,5.16,0,0,1,.66-1.71,2.94,2.94,0,0,1,1.05-1,2.63,2.63,0,0,1,1.29-.36.6.6,0,0,1,.41.14.41.41,0,0,1,.16.33.37.37,0,0,1-.15.3.59.59,0,0,1-.41.13l-.39,0A6.39,6.39,0,0,0,49,23.3a.56.56,0,0,0-.46.23,3.16,3.16,0,0,0-.37,1.1l-.69,3.08a7.59,7.59,0,0,1,1.6-1.31,1.59,1.59,0,0,1,.81-.32.52.52,0,0,1,.38.14.57.57,0,0,1,.13.4,2.09,2.09,0,0,1,0,.43c-.06.24-.18.69-.38,1.34-.27.89-.43,1.44-.48,1.66a3.36,3.36,0,0,0-.07.58.21.21,0,0,0,0,.15s0,0,.1,0,.28-.12.55-.35Z"/><path class="cls-1" d="M59.12,31l-.09.36a3.51,3.51,0,0,1-.7.09c-.17,0-.46,0-.85-.05s-.57,0-.81,0a8,8,0,0,0-1.27.11l.08-.34a1.85,1.85,0,0,0,.91-.27,1.07,1.07,0,0,0,.35-.49c.1-.23.31-1,.66-2.42l.78-3.31,0-.16-.55,0a5.21,5.21,0,0,0-1.81.25,2.11,2.11,0,0,0-1,.73,1.75,1.75,0,0,0-.33,1,.84.84,0,0,0,.07.35,1.34,1.34,0,0,0,.27.36.69.69,0,0,1,.21.43.37.37,0,0,1-.13.29.4.4,0,0,1-.29.12.48.48,0,0,1-.42-.25,1.7,1.7,0,0,1-.24-.94,2.69,2.69,0,0,1,.47-1.48,3.17,3.17,0,0,1,1.28-1.12,4.54,4.54,0,0,1,2-.39A14.53,14.53,0,0,1,59.5,24a10.15,10.15,0,0,0,1.25.12A.87.87,0,0,0,61.3,24a.41.41,0,0,0,.16-.35s0-.08,0-.17,0-.13,0-.16a.41.41,0,0,1,.11-.28.4.4,0,0,1,.27-.11.36.36,0,0,1,.3.14.53.53,0,0,1,.12.37,1,1,0,0,1-.5.81,3,3,0,0,1-1.66.35c-.28,0-.58,0-.9,0l-.39,1.53-.53,2.16-.33,1.32L57.57,31a6.58,6.58,0,0,0,.68.05A3.84,3.84,0,0,0,59.12,31Z"/><path class="cls-1" d="M64.6,26l.4-.09-.46,1.59c-.18.63-.36,1.35-.52,2.17a6.28,6.28,0,0,0-.14.87c0,.13,0,.19.16.19a.69.69,0,0,0,.31-.13,4.38,4.38,0,0,0,.74-.58l.19.25c-.47.43-.77.69-.9.79a3.44,3.44,0,0,1-.75.4,1.29,1.29,0,0,1-.46.09.43.43,0,0,1-.24-.07.31.31,0,0,1-.08-.22,1.05,1.05,0,0,1,0-.26l.25-.85a5.42,5.42,0,0,1-1.27,1.11,1.55,1.55,0,0,1-.82.28.64.64,0,0,1-.55-.25,1.48,1.48,0,0,1-.26-.9,3.82,3.82,0,0,1,.35-1.48,5.59,5.59,0,0,1,.93-1.48,3.93,3.93,0,0,1,1.24-1,3,3,0,0,1,1.28-.24l.4,0Zm-.77,1a2.58,2.58,0,0,0-.56-.07,1.56,1.56,0,0,0-1,.31,2.81,2.81,0,0,0-.76,1.11,3.92,3.92,0,0,0-.36,1.61,1.05,1.05,0,0,0,.14.61.44.44,0,0,0,.37.19,1.41,1.41,0,0,0,.92-.47,2.81,2.81,0,0,0,.71-1.34Z"/><path class="cls-1" d="M68.4,26.08a1.46,1.46,0,0,1,.85.21.62.62,0,0,1,.3.5.43.43,0,0,1-.43.42.46.46,0,0,1-.21-.05,1.43,1.43,0,0,1-.24-.27.8.8,0,0,0-.6-.4.61.61,0,0,0-.45.19.67.67,0,0,0-.19.49,1.11,1.11,0,0,0,.12.5,4.4,4.4,0,0,0,.62.78,2.1,2.1,0,0,1,.69,1.4A1.5,1.5,0,0,1,68.3,31a2,2,0,0,1-1.43.5,1.67,1.67,0,0,1-1.09-.3.94.94,0,0,1-.36-.75.49.49,0,0,1,.14-.36.43.43,0,0,1,.33-.15.41.41,0,0,1,.3.12.37.37,0,0,1,.12.27,1,1,0,0,1,0,.16v.14a.44.44,0,0,0,.17.35.65.65,0,0,0,.46.15,1.34,1.34,0,0,0,.58-.12.83.83,0,0,0,.39-.35A.85.85,0,0,0,68,30.2a.86.86,0,0,0-.13-.45,5.85,5.85,0,0,0-.59-.75,2.14,2.14,0,0,1-.64-1.39,1.42,1.42,0,0,1,.48-1.07A1.73,1.73,0,0,1,68.4,26.08Z"/><path class="cls-1" d="M71.46,25.12l1-.39L72,26.49h1.27l-.1.44H71.9L71.36,29a6,6,0,0,0-.26,1.31.38.38,0,0,0,.07.24.28.28,0,0,0,.2.08,1.37,1.37,0,0,0,.58-.23,7.68,7.68,0,0,0,1-.7l.23.29a15.17,15.17,0,0,1-1.8,1.26,1.69,1.69,0,0,1-.74.23.42.42,0,0,1-.36-.17.94.94,0,0,1-.13-.55,6.1,6.1,0,0,1,.24-1.37L71,26.93H70l.12-.44h1Z"/><path class="cls-1" d="M77,29.77l.21.27a4.14,4.14,0,0,1-2.59,1.46.79.79,0,0,1-.67-.3,1.54,1.54,0,0,1-.23-1,5.09,5.09,0,0,1,.8-2.67,2.56,2.56,0,0,1,2.15-1.5.92.92,0,0,1,.67.22.82.82,0,0,1,.23.61,1.34,1.34,0,0,1-.28.8,3.24,3.24,0,0,1-1,.82c-.24.14-.75.38-1.53.74a5,5,0,0,0,0,.65,1,1,0,0,0,.14.62.49.49,0,0,0,.4.17,1.35,1.35,0,0,0,.55-.14A7.86,7.86,0,0,0,77,29.77Zm-2.15-.91a4.74,4.74,0,0,0,1.49-1,1.09,1.09,0,0,0,.34-.72.65.65,0,0,0-.14-.43.47.47,0,0,0-.36-.16.72.72,0,0,0-.45.18,1.73,1.73,0,0,0-.48.7A6,6,0,0,0,74.85,28.86Z"/></g></svg>