<?xml version="1.0" ?><svg xmlns="http://www.w3.org/2000/svg" xmlns:xlink="http://www.w3.org/1999/xlink" version="1.1" viewBox="0 0 512 512" style="enable-background:new 0 0 512 512;" xml:space="preserve"><g id="_x30_3_x2C__Tea_Bag_x2C__Green_Beans_x2C__Coffee_Pack_x2C__Food_and_Restaurant_x2C__Tea_Bags"><g><path style="fill:#E3EFFC;" d="M226,141l-70,30.5L86,141l-50,70v80c40.417,41.383,103.699,62.712,240,20V211L226,141z"/><path style="fill:#FAF0AF;" d="M476,371v100c0,16.57-13.43,30-30,30h-60c-16.57,0-30-13.43-30-30V371l60-40L476,371z"/><path style="fill:#546C94;" d="M226,141v30c0,38.66-31.34,70-70,70c-38.658,0-70-31.339-70-70v-30    C102.934,141,208.954,141,226,141z"/><path style="fill:#B9741B;" d="M236,301c-26.31-6.573-53.687-6.573-80,0c-26.26,6.57-53.74,6.57-80,0l-40-10v180    c0,16.57,13.43,30,30,30h180c16.57,0,30-13.43,30-30V311L236,301z"/><ellipse transform="matrix(0.7071 -0.7071 0.7071 0.7071 -238.7211 228.1162)" style="fill:#86ED7F;" cx="156" cy="402.22" rx="63.258" ry="39.994"/><g><g><path d="M204.08,348.07c-28.961-10.306-61.713-2.929-83.436,18.794c-21.722,21.723-29.099,54.473-18.793,83.436      c1.049,2.936,3.382,5.112,6.068,6.069c28.816,10.252,61.601,3.04,83.436-18.794c21.722-21.723,29.099-54.473,18.793-83.437      C209.141,351.307,206.912,349.078,204.08,348.07z M177.213,423.433c-12.17,12.171-28.958,18.329-45.731,17.448l32.866-32.866      c3.905-3.905,3.905-10.237,0-14.143c-3.906-3.904-10.236-3.904-14.143,0l-32.867,32.867      c-0.882-16.774,5.277-33.561,17.449-45.732c15.146-15.146,37.434-20.992,57.957-15.532      C198.205,385.994,192.358,408.288,177.213,423.433z"/><path d="M481.547,362.68L426,325.648V141C426,63.804,363.196,1,286,1c-73.833,0-134.494,57.453-139.639,130H86      c-3.291,0-6.332,1.665-8.138,4.188l-50,70C26.651,206.884,26,208.917,26,211v260c0,22.056,17.944,40,40,40h180      c22.056,0,40-17.944,40-40V211c0-2.084-0.651-4.116-1.862-5.813l-50-70C232.276,132.584,229.206,131,226,131h-59.58      C171.519,69.494,223.2,21,286,21c66.168,0,120,53.832,120,120v184.648l-55.547,37.031c-2.782,1.854-4.453,4.977-4.453,8.32v100      c0,22.056,17.944,40,40,40h60c22.056,0,40-17.944,40-40V371C486,367.656,484.329,364.534,481.547,362.68z M136,181      c-5.522,0-10,4.477-10,10s4.478,10,10,10h40c5.522,0,10-4.477,10-10s-4.478-10-10-10h-10v-30h50v20c0,33.084-26.916,60-60,60      s-60-26.916-60-60v-20h50v30H136z M246,491H66c-11.028,0-20-8.972-20-20V303.807l27.571,6.893      c27.754,6.94,57.097,6.939,84.853,0.001c24.582-6.145,50.569-6.145,75.149,0L266,318.807V471C266,482.028,257.028,491,246,491z       M266,298.193l-27.576-6.894c-27.754-6.939-57.096-6.939-84.85,0c-24.583,6.145-50.57,6.146-75.151-0.001L46,283.193v-68.987      l30.03-42.041C76.657,215.739,112.278,251,156,251c43.722,0,79.343-35.261,79.97-78.836L266,214.205V298.193z M466,471      c0,11.028-8.972,20-20,20h-60c-11.028,0-20-8.972-20-20v-94.648l50-33.333l50,33.333V471z"/><path d="M386,401c0,5.522,4.478,10,10,10h40c5.522,0,10-4.478,10-10s-4.478-10-10-10h-40C390.478,391,386,395.478,386,401z"/></g></g></g></g><g id="Layer_1"/></svg>