<?xml version="1.0" encoding="utf-8"?>
<!-- Generator: Adobe Illustrator 25.2.0, SVG Export Plug-In . SVG Version: 6.00 Build 0)  -->
<svg version="1.1" id="圖層_1" xmlns="http://www.w3.org/2000/svg" xmlns:xlink="http://www.w3.org/1999/xlink" x="0px" y="0px"
	 viewBox="0 0 96.5 41.8" style="enable-background:new 0 0 96.5 41.8;" xml:space="preserve">
<style type="text/css">
	.st0{fill:none;stroke:#231815;stroke-width:0.5939;stroke-miterlimit:10;}
	.st1{fill:none;stroke:#231815;stroke-miterlimit:10;}
	.st2{fill:none;stroke:#231815;stroke-width:0.5763;stroke-miterlimit:10;}
	.st3{fill:none;stroke:#231815;stroke-width:0.2515;stroke-miterlimit:10;}
	.st4{fill:#C9A063;stroke:#231815;stroke-width:0.5081;stroke-miterlimit:10;}
	.st5{fill:#7F4F21;stroke:#231815;stroke-width:0.4114;stroke-miterlimit:10;}
	.st6{fill:#C9A063;}
	.st7{fill:none;stroke:#231815;stroke-width:0.5853;stroke-miterlimit:10;}
	.st8{fill:none;stroke:#231815;stroke-width:0.4704;stroke-miterlimit:10;}
	.st9{fill:#C9A063;stroke:#231815;stroke-width:0.2069;stroke-miterlimit:10;}
	.st10{fill:#558971;stroke:#231815;stroke-width:0.1675;stroke-miterlimit:10;}
	.st11{fill:none;stroke:#231815;stroke-width:0.2383;stroke-miterlimit:10;}
	.st12{fill:none;stroke:#231815;stroke-width:0.1915;stroke-miterlimit:10;}
</style>
<line class="st0" x1="-665.6" y1="331.6" x2="-576.9" y2="331.6"/>
<path class="st0" d="M-665.6,331.6c0,28.1,18.7,40.8,43.3,40.8"/>
<path class="st0" d="M-577.1,331.6c0,28.1-20.6,40.8-45.2,40.8"/>
<line class="st1" x1="-693.1" y1="376" x2="-530.4" y2="376"/>
<path class="st0" d="M-578.1,337.9"/>
<g>
	<g>
		<path class="st2" d="M-634.1,288.5c0,3.9-6.9,3.9-7,7.8c0,3.9,6.9,4,6.9,7.9c0,3.9-6.9,3.9-7,7.8c0,3.9,6.9,4,6.9,7.9
			c0,3.9-6.9,3.9-7,7.8"/>
	</g>
	<g>
		<path class="st2" d="M-618.2,287.7c0,3.9-6.9,3.9-7,7.8c0,3.9,6.9,4,6.9,7.9c0,3.9-6.9,3.9-7,7.8c0,3.9,6.9,4,6.9,7.9
			c0,3.9-6.9,3.9-7,7.8"/>
	</g>
	<g>
		<path class="st2" d="M-602.3,287.7c0,3.9-6.9,3.9-7,7.8c0,3.9,6.9,4,6.9,7.9c0,3.9-6.9,3.9-7,7.8c0,3.9,6.9,4,6.9,7.9
			c0,3.9-6.9,3.9-7,7.8"/>
	</g>
</g>
<path class="st3" d="M-376.4,280.2"/>
<g>
	<path class="st4" d="M-445.4,375.5c0,10.5-10.4,26.4-24.9,26.4c-12,0-25.7-15.9-25.7-26.4s10.3-18.9,25.3-19.1
		C-455.4,356.2-445.4,365-445.4,375.5z"/>
	<path class="st5" d="M-447.5,372.5c1.2,7.1-10.4,13.6-23.2,13.6c-12.8,0-24-5.2-23.2-13.6c0.6-6.6,11.2-13.7,23.2-13.6
		C-458.1,359-448.9,364.2-447.5,372.5z"/>
	<g id="XMLID_1_">
		<g>
			<path class="st6" d="M-446.2,381.6c9.9-8.4,22.4,15.8-11,15.7l1.8-1.4l0.4,0c25.8-2.1,15.9-19,8.2-12.4L-446.2,381.6z"/>
		</g>
		<g>
			<path class="st7" d="M-455.4,395.9l-1.8,1.4c33.4,0.1,20.9-24.1,11-15.7l-0.6,1.9c7.7-6.5,17.6,10.3-8.2,12.4L-455.4,395.9z"/>
		</g>
	</g>
	<g>
		<path class="st8" d="M-480.2,342.5c0,3.2-5.7,3.2-5.7,6.4c0,3.2,5.6,3.2,5.6,6.4c0,3.2-5.7,3.2-5.7,6.4c0,3.2,5.6,3.2,5.6,6.5
			c0,3.2-5.7,3.2-5.7,6.4"/>
	</g>
	<g>
		<path class="st8" d="M-467.5,341.9c0,3.2-5.7,3.2-5.7,6.4c0,3.2,5.6,3.2,5.6,6.4c0,3.2-5.7,3.2-5.7,6.4c0,3.2,5.6,3.2,5.6,6.5
			s-5.7,3.2-5.7,6.4"/>
	</g>
	<g>
		<path class="st8" d="M-454.2,341.9c0,3.2-5.7,3.2-5.7,6.4c0,3.2,5.6,3.2,5.6,6.4c0,3.2-5.7,3.2-5.7,6.4c0,3.2,5.6,3.2,5.6,6.5
			c0,3.2-5.7,3.2-5.7,6.4"/>
	</g>
</g>
<g>
	<path d="M-398.2,291.8c0.1,0,0.1,0.1,0.2,0.2c0.2,0.3,0.2,0.6,0.2,0.8c0,0.3-0.1,0.7-0.2,1c-0.1,0.3-0.2,0.5-0.3,0.6
		c-0.1,0.1-0.2,0.2-0.3,0.2c-0.2,0-0.3-0.1-0.4-0.3c-0.1-0.1-0.1-0.3-0.1-0.5c0-0.1,0-0.3,0.1-0.4c0.4-0.7,0.7-1.2,0.7-1.4
		C-398.3,291.9-398.2,291.8-398.2,291.8z M-397.5,287.7c0.4,0.1,0.5,0.3,0.5,0.4c0,0.2,0,0.3,0,0.5c0.2,1.1,0.3,1.9,0.3,2.3
		c0,0.2,0,0.3-0.1,0.4c-0.1,0.1-0.1,0.2-0.2,0.2c-0.1,0-0.2-0.1-0.2-0.2c-0.1-0.2-0.2-0.4-0.2-0.6l-0.2-1.1
		c-0.1-0.6-0.1-0.9-0.2-1.2c0-0.2-0.2-0.4-0.4-0.6c-0.1-0.1-0.1-0.1-0.1-0.1c0-0.2,0.1-0.2,0.2-0.2
		C-397.9,287.6-397.7,287.6-397.5,287.7z M-395,283c0.4,0.3,0.6,0.5,0.6,0.7c0,0-0.1,0.1-0.2,0.2c-0.1,0.1-0.2,0.2-0.3,0.4
		c-0.5,0.7-0.9,1.2-1.4,1.6c-0.4,0.4-0.8,0.7-1.2,0.9c-0.3,0.2-0.5,0.3-0.6,0.3c-0.1,0-0.1,0-0.1-0.1c0,0,0-0.1,0.1-0.1
		c0.4-0.3,0.8-0.8,1.2-1.3c0.3-0.4,0.7-0.9,1-1.5c0.2-0.3,0.3-0.7,0.3-1c0-0.2,0.1-0.3,0.2-0.3C-395.3,282.8-395.2,282.8-395,283z
		 M-392.7,287.3c0.3,0.2,0.5,0.3,0.5,0.5c0,0.1,0,0.1-0.1,0.2c-0.1,0.1-0.2,0.4-0.3,0.7l-0.6,2c-0.1,0.3-0.3,0.4-0.5,0.4
		c-0.1,0-0.2-0.2-0.3-0.5c0,0,0-0.1,0.1-0.2c0.1-0.2,0.2-0.6,0.3-1.3c0.1-0.5,0.1-0.9,0.1-1.2c0-0.2-0.1-0.3-0.2-0.3
		c-0.2,0-0.8,0.1-1.9,0.3c-0.6,0.1-1.2,0.2-1.7,0.2c-0.3,0-0.4-0.1-0.4-0.4c1.3-0.1,2.4-0.3,3.5-0.6c0.4-0.1,0.6-0.2,0.8-0.2
		C-393.4,287-393.2,287.1-392.7,287.3z M-396.8,292.1c0.3,0.1,0.5,0.2,0.7,0.4c0.1,0.2,0.2,0.4,0.2,0.7c0,0.3-0.1,0.4-0.3,0.4
		c-0.1,0-0.2-0.1-0.2-0.2c-0.2-0.2-0.4-0.6-0.7-1.2c0-0.1-0.1-0.1-0.1-0.1c0-0.1,0-0.1,0.1-0.1C-397.1,292-397,292.1-396.8,292.1z
		 M-393.9,288.8c0.2,0.1,0.4,0.2,0.4,0.2c0,0.1-0.2,0.2-0.5,0.2c-0.2,0-0.4,0.1-0.6,0.1c-0.1,0-0.5,0.1-1.1,0.2
		c-0.3,0.1-0.6,0.1-0.7,0.1c-0.2,0-0.4,0-0.5-0.1c-0.2-0.1-0.3-0.1-0.3-0.2c0-0.1,0.2-0.2,0.5-0.2c0.7-0.1,1.3-0.2,2-0.4
		c0.2,0,0.3-0.1,0.3-0.1C-394.3,288.7-394.1,288.7-393.9,288.8z M-394.2,290.4c0.2,0.1,0.3,0.2,0.3,0.3c0,0.1,0,0.1-0.1,0.1
		c-0.3,0-0.6,0-0.8,0.1l-1.2,0.2c-0.2,0-0.4,0.1-0.5,0.1c-0.2,0-0.3,0-0.4-0.1c-0.1-0.1-0.1-0.1-0.1-0.2c0-0.1,0.1-0.1,0.2-0.1
		c0.6-0.1,1.1-0.2,1.7-0.3c0.3-0.1,0.5-0.1,0.6-0.1C-394.5,290.2-394.4,290.2-394.2,290.4z M-393.1,284.5c0.3,0.1,0.5,0.3,0.5,0.4
		c0,0.1-0.1,0.2-0.4,0.4c-0.4,0.3-0.9,0.9-1.5,1.6c-0.5,0.6-0.9,0.9-1.1,0.9c-0.1,0-0.1,0-0.1-0.1c0.6-1,1.1-1.7,1.3-2.3
		c0-0.1,0-0.1-0.1-0.1c-0.4,0.1-0.6,0.1-0.7,0.1c-0.2,0-0.4,0-0.5,0c-0.2-0.1-0.3-0.2-0.3-0.3c0-0.1,0.1-0.1,0.3-0.1
		c0.6-0.1,1.1-0.2,1.6-0.4c0.3-0.1,0.5-0.2,0.6-0.2C-393.6,284.3-393.4,284.4-393.1,284.5z M-395.1,287.9c0.2,0.1,0.3,0.2,0.3,0.3
		c0,0.1,0,0.2,0,0.2c0,0.2-0.1,0.3-0.1,0.4l-0.2,1.8h-0.7l0-2.1c0-0.1-0.1-0.3-0.1-0.4c-0.1-0.1-0.1-0.1-0.1-0.2
		c0-0.2,0.1-0.3,0.3-0.3S-395.4,287.8-395.1,287.9z M-395.4,291.8c0.3,0.1,0.5,0.2,0.7,0.4c0.1,0.2,0.2,0.4,0.2,0.6
		c0,0.3-0.1,0.4-0.3,0.4c-0.1,0-0.2,0-0.3-0.1c-0.2-0.2-0.4-0.5-0.7-1.1c0-0.1-0.1-0.1-0.1-0.1c0-0.1,0-0.1,0.1-0.1
		C-395.6,291.7-395.5,291.7-395.4,291.8z M-394,291.4c0.2,0.1,0.5,0.2,0.7,0.3c0.3,0.2,0.5,0.3,0.6,0.5c0.1,0.1,0.1,0.3,0.1,0.4
		c0,0.1,0,0.3-0.1,0.5c-0.1,0.1-0.2,0.2-0.3,0.2c0,0-0.1,0-0.2-0.1c-0.1-0.1-0.3-0.3-0.5-0.6c-0.2-0.4-0.4-0.7-0.5-0.8
		c-0.1-0.1-0.1-0.2-0.1-0.2c0-0.1,0-0.1,0.1-0.1C-394.2,291.3-394.1,291.4-394,291.4z M-385.7,290c0.3,0.2,0.5,0.3,0.5,0.4
		c0,0.1-0.1,0.2-0.3,0.3c-0.1,0.1-0.4,0.1-0.8,0.1c-0.9,0-1.8,0.1-2.8,0.2c-1.4,0.2-2.3,0.3-2.8,0.4c-0.2,0-0.3,0.1-0.3,0.1
		c-0.1,0-0.3-0.1-0.6-0.2c-0.2-0.1-0.3-0.2-0.3-0.3s0.1-0.1,0.3-0.1c0.8-0.1,1.8-0.2,2.9-0.4c1.6-0.2,2.7-0.4,3.1-0.5
		c0.2,0,0.3-0.1,0.4-0.1C-386.2,289.8-386,289.9-385.7,290z M-387,286c0.2,0.1,0.3,0.2,0.3,0.3c0,0.1-0.1,0.2-0.3,0.2
		c-0.2,0.1-0.8,0.2-1.6,0.4c-1.3,0.2-2.1,0.3-2.5,0.3c-0.4,0-0.7,0-0.8-0.1c-0.2-0.1-0.2-0.2-0.2-0.3c0-0.1,0.2-0.1,0.5-0.1
		c0.7-0.1,1.5-0.2,2.4-0.4c0.6-0.1,1.1-0.2,1.5-0.4c0.1-0.1,0.2-0.1,0.3-0.1C-387.5,285.8-387.3,285.9-387,286z M-391.3,283.7
		c0.4,0.1,0.7,0.3,0.9,0.4c0.2,0.2,0.3,0.4,0.3,0.8c0,0.4-0.2,0.6-0.5,0.6c-0.1,0-0.2-0.1-0.3-0.2c-0.2-0.2-0.5-0.7-0.9-1.4
		c0-0.1-0.1-0.1-0.1-0.2c0-0.1,0.1-0.1,0.2-0.1C-391.6,283.6-391.5,283.6-391.3,283.7z M-387.4,288.2c0.3,0.1,0.4,0.2,0.4,0.2
		c0,0.1-0.2,0.2-0.5,0.3c-0.3,0-0.6,0.1-0.9,0.1c-0.2,0-0.8,0.1-1.7,0.3c-0.5,0.1-0.8,0.1-1,0.1c-0.2,0-0.4,0-0.5-0.1
		c-0.2-0.1-0.3-0.1-0.3-0.2c0-0.1,0.2-0.2,0.5-0.2c1-0.2,2-0.3,3-0.6c0.3-0.1,0.4-0.1,0.5-0.1C-387.9,288.1-387.7,288.1-387.4,288.2
		z M-389.3,286.9c0.3,0.2,0.5,0.3,0.5,0.5c0,0,0,0.1-0.1,0.3c-0.1,0.3-0.1,0.7-0.2,1.1l-0.1,4.8c0,0.9-0.1,1.7-0.2,2.4
		c-0.1,0.6-0.3,0.8-0.4,0.8c-0.1,0-0.2-0.2-0.3-0.6c0-0.5,0-1.2,0-2.1v-5.8c0-0.5,0-0.9-0.1-1.2c0-0.1-0.1-0.2-0.1-0.3
		c0-0.1,0.1-0.2,0.2-0.2C-389.9,286.7-389.7,286.8-389.3,286.9z M-387.3,283.3c0.3,0.2,0.5,0.4,0.5,0.5c0,0-0.1,0.1-0.1,0.2
		c-0.2,0.1-0.4,0.2-0.7,0.5c-0.4,0.4-0.9,0.9-1.5,1.3c-0.4,0.2-0.6,0.3-0.7,0.3c0,0-0.1,0-0.1-0.1c0.5-0.7,1-1.3,1.3-1.8
		c0.2-0.4,0.4-0.8,0.4-1c0-0.1,0.1-0.2,0.2-0.2S-387.6,283.2-387.3,283.3z"/>
	<path d="M-381.8,291.1c0.4,0.1,0.5,0.3,0.5,0.4c0,0.2,0,0.4,0,0.5c0.2,1.2,0.3,2,0.3,2.4c0,0.2,0,0.3-0.1,0.4
		c-0.1,0.1-0.1,0.2-0.2,0.2c-0.1,0-0.2-0.1-0.2-0.2c-0.1-0.2-0.2-0.4-0.2-0.6l-0.2-1.1c-0.1-0.6-0.1-1-0.2-1.2
		c0-0.2-0.2-0.5-0.4-0.7c-0.1-0.1-0.1-0.1-0.1-0.1c0-0.2,0.1-0.2,0.2-0.2C-382.1,291-382,291.1-381.8,291.1z M-377.7,290.7
		c0.4,0.2,0.5,0.4,0.5,0.6c0,0.1,0,0.1-0.1,0.2c-0.1,0.1-0.2,0.3-0.3,0.6c-0.1,0.4-0.3,1-0.5,1.8c-0.1,0.1-0.2,0.2-0.4,0.3
		c-0.2,0-0.3,0.1-0.4,0.1c0,0-0.1,0-0.2-0.1c0-0.1-0.1-0.1-0.1-0.1c0,0,0-0.1,0-0.2c0.1-0.4,0.2-0.8,0.2-1.3
		c0.1-0.5,0.1-0.8,0.1-1.1c0-0.2-0.2-0.3-0.5-0.3c-0.1,0-0.5,0.1-1.1,0.2c-0.8,0.2-1.2,0.2-1.3,0.2c-0.2,0-0.3,0-0.4-0.1
		c-0.1-0.1-0.2-0.2-0.2-0.2c0-0.1,0.1-0.1,0.2-0.1h0.2c0.4,0,0.9-0.1,1.5-0.2c0.5-0.1,1-0.2,1.4-0.4c0.2-0.1,0.3-0.1,0.4-0.1
		C-378.2,290.5-378,290.6-377.7,290.7z M-378,293.8c0.2,0.1,0.3,0.3,0.3,0.4c0,0.1,0,0.1-0.1,0.1c-0.4,0-0.7,0-1,0.1l-1.4,0.2
		c-0.3,0-0.5,0.1-0.6,0.1c-0.3,0-0.4,0-0.5-0.1c-0.1-0.1-0.1-0.2-0.1-0.3c0-0.1,0.1-0.2,0.2-0.2c0.7-0.1,1.3-0.2,2-0.3
		c0.3-0.1,0.6-0.1,0.7-0.1C-378.5,293.6-378.3,293.7-378,293.8z M-378.9,284.9c0.4,0.1,0.6,0.3,0.6,0.5c0,0.2,0,0.4,0,0.6
		c0.2,1.2,0.3,2.1,0.3,2.6c0,0.2,0,0.3-0.1,0.4c-0.1,0.1-0.1,0.2-0.2,0.2c-0.1,0-0.2-0.1-0.3-0.2c-0.1-0.2-0.2-0.4-0.2-0.6l-0.2-1.2
		c-0.1-0.6-0.2-1-0.2-1.3c-0.1-0.3-0.2-0.5-0.4-0.7c-0.1-0.1-0.1-0.1-0.1-0.1c0-0.2,0.1-0.3,0.2-0.3
		C-379.3,284.8-379.1,284.8-378.9,284.9z M-373.6,284.3c0.4,0.3,0.6,0.5,0.6,0.7c0,0.1-0.1,0.1-0.2,0.2c-0.2,0.1-0.3,0.3-0.4,0.6
		c-0.2,0.4-0.4,1.1-0.6,1.9c-0.1,0.1-0.2,0.3-0.5,0.4c-0.2,0-0.4,0.1-0.5,0.1c0,0-0.1,0-0.2-0.1c0-0.1-0.1-0.2-0.1-0.2
		c0,0,0-0.1,0.1-0.2c0.1-0.4,0.2-0.9,0.3-1.4c0.1-0.5,0.2-0.9,0.2-1.2c0-0.2-0.2-0.3-0.6-0.3c-0.2,0-0.7,0.1-1.5,0.3
		c-1.1,0.2-1.7,0.4-1.7,0.4c-0.2,0-0.3-0.1-0.4-0.2c-0.1-0.1-0.2-0.2-0.2-0.2c0-0.1,0.1-0.1,0.2-0.1h0.2c0.6,0,1.2-0.1,2-0.3
		c0.7-0.2,1.3-0.3,1.9-0.5c0.2-0.1,0.4-0.1,0.5-0.1C-374.2,284-374,284.1-373.6,284.3z M-374.3,287.8c0.2,0.2,0.4,0.3,0.4,0.4
		c0,0.1-0.1,0.1-0.2,0.1c-0.5,0-0.9,0-1.2,0.1l-1.7,0.2c-0.3,0-0.6,0.1-0.7,0.1c-0.3,0-0.5-0.1-0.6-0.2c-0.1-0.1-0.2-0.2-0.2-0.3
		c0-0.1,0.1-0.2,0.2-0.2c0.9-0.1,1.7-0.2,2.5-0.3c0.4-0.1,0.7-0.1,0.8-0.1C-374.8,287.6-374.6,287.6-374.3,287.8z M-375.5,290.5
		c0.4,0.1,0.5,0.3,0.5,0.4c0,0.2,0,0.4,0,0.6c0.1,1.4,0.2,2.3,0.2,2.8c0,0.2,0,0.3-0.1,0.4c-0.1,0.1-0.1,0.2-0.2,0.2
		c-0.1,0-0.2-0.1-0.2-0.2c-0.1-0.2-0.2-0.4-0.2-0.6l-0.2-1.3c-0.1-0.7-0.1-1.1-0.2-1.4c0-0.3-0.2-0.5-0.3-0.8
		c-0.1-0.1-0.1-0.1-0.1-0.1c0-0.2,0.1-0.2,0.2-0.2C-375.9,290.4-375.7,290.4-375.5,290.5z M-370.6,290.2c0.4,0.3,0.6,0.5,0.6,0.7
		c0,0.1-0.1,0.1-0.2,0.2c-0.2,0.1-0.3,0.3-0.4,0.6c-0.2,0.4-0.4,1-0.6,1.8c-0.1,0.2-0.2,0.3-0.5,0.4c-0.2,0.1-0.4,0.1-0.5,0.1
		c0,0-0.1,0-0.2-0.1c0-0.1-0.1-0.2-0.1-0.2c0,0,0-0.1,0.1-0.2c0.1-0.4,0.2-0.8,0.3-1.3c0.1-0.5,0.2-0.8,0.2-1.1
		c0-0.2-0.2-0.3-0.6-0.3c-0.2,0-0.6,0.1-1.4,0.2c-1,0.2-1.5,0.2-1.6,0.2c-0.2,0-0.3-0.1-0.4-0.2c-0.1-0.1-0.2-0.2-0.2-0.2
		c0-0.1,0.1-0.1,0.2-0.1h0.2c0.5,0,1.2-0.1,1.9-0.2c0.7-0.1,1.2-0.3,1.8-0.4c0.2-0.1,0.4-0.1,0.5-0.1
		C-371.2,289.8-371,290-370.6,290.2z M-371.1,293.6c0.2,0.2,0.4,0.3,0.4,0.4c0,0.1-0.1,0.1-0.2,0.1c-0.5,0-0.9,0-1.2,0.1l-1.7,0.1
		c-0.3,0-0.6,0-0.7,0c-0.3,0-0.5-0.1-0.6-0.2c-0.1-0.1-0.2-0.2-0.2-0.3c0-0.1,0.1-0.2,0.2-0.2c0.9,0,1.7-0.1,2.5-0.2
		c0.4-0.1,0.7-0.1,0.8-0.1C-371.6,293.4-371.4,293.4-371.1,293.6z"/>
	<path d="M-367,287c0.3,0.1,0.5,0.2,0.5,0.4c0,0.2,0,0.4,0,0.6c0.2,1.3,0.3,2.2,0.3,2.7c0,0.2,0,0.3-0.1,0.4c0,0.1-0.1,0.2-0.2,0.2
		c-0.1,0-0.2-0.1-0.2-0.2c-0.1-0.2-0.2-0.3-0.2-0.5l-0.2-1.2c-0.1-0.6-0.1-1.1-0.2-1.4c0-0.3-0.2-0.5-0.4-0.7
		c-0.1-0.1-0.1-0.1-0.1-0.1c0-0.1,0.1-0.2,0.2-0.2C-367.4,286.9-367.2,286.9-367,287z M-363.2,286.6c0.2,0.1,0.3,0.3,0.3,0.4
		c0,0.2-0.1,0.3-0.2,0.5c-0.1,0.3-0.3,0.6-0.4,1.1l-0.3,1.4c-0.1,0.2-0.2,0.3-0.4,0.3c-0.3,0-0.4-0.1-0.4-0.2c0-0.1,0-0.2,0-0.4
		c0.1-0.5,0.1-1,0.2-1.3c0-0.4,0.1-0.8,0.1-1c0-0.1-0.1-0.2-0.2-0.2c-0.2,0-0.4,0.1-0.7,0.2c-0.6,0.2-0.9,0.3-1.1,0.3
		c-0.1,0-0.3-0.1-0.4-0.2c-0.2-0.1-0.2-0.2-0.2-0.2c0-0.1,0.1-0.1,0.2-0.1c0.5,0,0.9-0.1,1.3-0.2c0.4-0.1,0.7-0.2,1.1-0.5
		c0.1-0.1,0.2-0.1,0.3-0.1C-364,286.3-363.7,286.4-363.2,286.6z M-364,290c0.2,0.1,0.3,0.3,0.3,0.4c0,0.1,0,0.1-0.1,0.1
		c-0.3,0-0.5,0-0.7,0.1l-1.1,0.1c-0.2,0-0.3,0-0.4,0c-0.3,0-0.4,0-0.5-0.1c-0.1-0.1-0.1-0.2-0.1-0.3c0-0.1,0.1-0.2,0.2-0.2
		c0.5,0,0.9-0.1,1.4-0.2c0.2-0.1,0.4-0.1,0.5-0.1C-364.5,289.8-364.3,289.9-364,290z M-359.6,289.4c0.1,0.3,0.2,0.5,0.2,0.7
		c0,0.1-0.1,0.2-0.2,0.2c-0.1,0.1-0.2,0.2-0.3,0.4c-0.4,0.6-0.9,1.2-1.4,1.7c-0.5,0.5-1,0.9-1.6,1.3c-0.5,0.3-1.1,0.5-1.8,0.7
		c-0.1,0-0.1,0-0.1-0.1c0,0,0.1-0.1,0.2-0.2c1.1-0.8,1.9-1.5,2.5-2c0.5-0.5,1.1-1.2,1.7-2.1c0.2-0.2,0.3-0.5,0.3-0.8
		c0.1-0.2,0.2-0.2,0.3-0.2C-359.7,289-359.7,289.1-359.6,289.4z M-355.3,288.4c0.4,0.2,0.6,0.4,0.6,0.5c0,0.1-0.2,0.2-0.5,0.2
		c-1,0-2.2,0.1-3.5,0.3c-0.7,0.1-1.7,0.2-2.9,0.5c-0.2,0.1-0.4,0.1-0.4,0.1c-0.2,0-0.5-0.1-0.7-0.2c-0.3-0.1-0.4-0.2-0.4-0.3
		c0,0,0.1-0.1,0.3-0.1c2.5-0.3,4.5-0.6,6-0.9c0.6-0.1,0.9-0.2,1-0.2C-355.8,288.2-355.6,288.2-355.3,288.4z M-356.9,285.7
		c0.2,0.1,0.3,0.2,0.3,0.3c0,0.1-0.1,0.2-0.3,0.2c-0.2,0.1-0.8,0.2-1.6,0.4c-1.3,0.2-2.1,0.3-2.5,0.3c-0.4,0-0.7,0-0.9-0.1
		c-0.2-0.1-0.2-0.2-0.2-0.3c0-0.1,0.2-0.1,0.5-0.1c0.7-0.1,1.5-0.2,2.4-0.4c0.6-0.1,1.1-0.3,1.5-0.4c0.1-0.1,0.2-0.1,0.3-0.1
		C-357.4,285.4-357.1,285.5-356.9,285.7z M-359.3,283.3c0.4,0.2,0.6,0.3,0.6,0.5c0,0.1,0,0.3-0.1,0.4c-0.1,0.2-0.1,0.6-0.2,1.2
		c-0.1,1.2-0.1,3.3-0.1,6.4c0,0.6,0,1.2,0,1.8c0,0.5,0,0.9,0,1.3c0,0.4-0.1,0.8-0.3,1.2c-0.2,0.3-0.3,0.4-0.4,0.4
		c-0.1,0-0.2-0.2-0.4-0.5c-0.1-0.4-0.2-0.7-0.2-0.9c0-0.2,0-0.4,0.1-0.8c0-0.2,0.1-0.5,0.1-0.8c0.1-1.4,0.2-3.8,0.2-7.2
		c0-1,0-1.6-0.1-1.9c0-0.3-0.1-0.5-0.2-0.7c-0.1-0.1-0.1-0.2-0.1-0.4c0-0.1,0.1-0.2,0.3-0.2C-359.7,283.1-359.5,283.1-359.3,283.3z
		 M-359.3,289.2c1.1,1.2,1.9,2,2.6,2.4c0.7,0.5,1.7,1,3.1,1.5c0.3,0.1,0.4,0.2,0.4,0.2c0,0.1-0.1,0.1-0.3,0.2
		c-0.6,0.2-1.3,0.3-2,0.3c-0.5,0-0.8-0.1-1-0.3c-0.6-0.6-1.6-1.8-3-3.8c-0.1-0.2-0.2-0.4-0.2-0.5c0-0.1,0-0.2,0.1-0.2
		C-359.5,289.1-359.4,289.1-359.3,289.2z"/>
</g>
<g>
	<path d="M-399.6,298l0.2,1.9h-0.3c-0.2-0.6-0.4-1-0.7-1.2c-0.3-0.2-0.7-0.4-1.2-0.4c-0.4,0-0.7,0.1-0.7,0.4v2.7h0.8
		c0.2,0,0.4-0.1,0.4-0.2c0.1-0.1,0.1-0.3,0.1-0.5v-0.5h0.3v2.8h-0.3v-0.3c0-0.3,0-0.6-0.1-0.7s-0.2-0.2-0.4-0.2h-0.8v2.9
		c0,0.3,0.1,0.5,0.3,0.5h0.3v0.3h-2v-0.3h0.3c0.2,0,0.4-0.2,0.4-0.5v-5.9c0-0.2-0.1-0.4-0.4-0.4h-0.2V298H-399.6z"/>
	<path d="M-397,300.3v1.2c0.2-0.3,0.4-0.6,0.6-0.8c0.3-0.3,0.7-0.4,1.2-0.4c0.7,0,1,0.2,1,0.5c0,0.1,0,0.2-0.1,0.3
		c-0.1,0.1-0.2,0.1-0.4,0.1c-0.1,0-0.2,0-0.4-0.1c-0.2-0.1-0.4-0.1-0.6-0.1c-0.3,0-0.6,0.2-0.9,0.6c-0.2,0.2-0.3,0.5-0.4,0.8v2.4
		c0,0.2,0.1,0.3,0.4,0.3h0.5v0.3h-2.5v-0.3h0.4c0.3,0,0.5-0.1,0.5-0.3v-3.2c0-0.3-0.2-0.5-0.5-0.5h-0.4v-0.3
		C-397.9,300.7-397.4,300.6-397,300.3z"/>
	<path d="M-391.3,300.3c1.1,0,1.8,0.8,2,2.3h-3.5c0,0.1,0,0.3,0,0.4c0,0.8,0.3,1.4,0.9,1.8c0.2,0.1,0.5,0.1,0.7,0.1
		c0.3,0,0.6-0.1,0.9-0.3c0.3-0.2,0.5-0.4,0.7-0.7l0.2,0.1c-0.2,0.4-0.5,0.8-0.9,1c-0.3,0.2-0.7,0.3-1.1,0.3c-0.4,0-0.8-0.1-1.1-0.3
		c-0.3-0.2-0.6-0.5-0.7-0.8c-0.2-0.4-0.3-0.8-0.3-1.3c0-0.4,0.1-0.8,0.2-1.2c0.2-0.5,0.4-0.8,0.7-1
		C-392.2,300.5-391.8,300.3-391.3,300.3z M-392.7,302.3h2.7c-0.1-1.1-0.5-1.6-1.3-1.6c-0.3,0-0.6,0.1-0.8,0.4
		c-0.3,0.2-0.4,0.5-0.5,0.9C-392.7,302-392.7,302.1-392.7,302.3z"/>
	<path d="M-386.5,300.3c0.3,0,0.6,0.1,0.9,0.2c0.1,0,0.2,0.1,0.2,0.1c0.1,0,0.3-0.1,0.5-0.2l0.5,1.5l-0.3,0
		c-0.1-0.4-0.4-0.7-0.8-0.9c-0.3-0.2-0.7-0.3-1.1-0.3c-0.2,0-0.4,0.1-0.6,0.3c-0.2,0.2-0.3,0.4-0.3,0.6c0,0.3,0.2,0.5,0.5,0.6
		l1.6,0.6c0.3,0.1,0.5,0.3,0.7,0.4c0.2,0.2,0.3,0.5,0.3,0.8c0,0.4-0.2,0.8-0.5,1c-0.3,0.3-0.7,0.4-1.2,0.4c-0.4,0-0.7-0.1-1-0.2
		c-0.1-0.1-0.2-0.1-0.3-0.1c-0.2,0-0.4,0.1-0.5,0.3l-0.6-1.8l0.3-0.1c0.5,1,1.2,1.4,2,1.4c0.3,0,0.6-0.1,0.8-0.3
		c0.2-0.2,0.2-0.4,0.2-0.7c0-0.2-0.1-0.3-0.2-0.5c-0.1-0.1-0.2-0.2-0.4-0.3l-1.5-0.5c-0.4-0.1-0.6-0.3-0.8-0.4
		c-0.2-0.2-0.2-0.5-0.2-0.8c0-0.3,0.1-0.6,0.4-0.9C-387.4,300.5-387,300.3-386.5,300.3z"/>
	<path d="M-382.6,297.9v3.3c0.5-0.6,1-0.8,1.6-0.8c0.4,0,0.7,0.1,1,0.3c0.3,0.2,0.4,0.5,0.4,0.9v3.2c0,0.2,0.2,0.3,0.5,0.3v0.3h-1.8
		v-0.3c0.4,0,0.6-0.1,0.6-0.3v-3.2c0-0.3-0.1-0.5-0.2-0.7c-0.1-0.1-0.3-0.2-0.6-0.2c-0.3,0-0.5,0.1-0.8,0.3
		c-0.2,0.2-0.4,0.4-0.6,0.7v3.1c0,0.2,0.2,0.3,0.6,0.3v0.3h-1.8v-0.3c0.3,0,0.5-0.1,0.5-0.3v-6.1c0-0.1-0.1-0.2-0.2-0.2h-0.3v-0.3
		C-383.3,298.2-382.9,298.1-382.6,297.9z"/>
	<path d="M-371.6,298.7h0.4v1.9h1.7v0.3h-1.7v3.4c0,0.5,0.2,0.7,0.5,0.7c0.4,0,0.8-0.2,1.2-0.6l0.2,0.1c-0.2,0.4-0.5,0.6-0.8,0.7
		c-0.2,0.1-0.5,0.2-0.8,0.2c-0.3,0-0.6-0.1-0.7-0.3c-0.2-0.2-0.3-0.5-0.3-0.9v-3.4h-1.3v-0.3c0.7,0,1.1-0.1,1.3-0.4
		C-371.7,299.9-371.6,299.4-371.6,298.7z"/>
	<path d="M-366.5,300.3c0.6,0,1,0.1,1.2,0.4c0.3,0.2,0.4,0.5,0.4,1v2.8c0,0.2,0.1,0.4,0.2,0.4c0.1,0,0.3-0.2,0.4-0.5l0.2,0.1
		c-0.2,0.6-0.5,0.9-0.9,0.9c-0.3,0-0.5-0.2-0.5-0.7c-0.6,0.5-1.3,0.8-1.9,0.8c-0.4-0.1-0.6-0.2-0.9-0.4c-0.2-0.2-0.3-0.5-0.3-0.9
		c0-0.9,0.5-1.4,1.4-1.6c0.4-0.2,1-0.3,1.6-0.3v-0.7c0-0.6-0.3-1-1-1c-0.3,0-0.5,0.1-0.7,0.2c-0.2,0.1-0.3,0.3-0.3,0.4
		c0,0,0,0.1,0.1,0.1c0.1,0.1,0.1,0.1,0.1,0.2c0,0.1-0.1,0.3-0.2,0.3c-0.1,0.1-0.2,0.1-0.4,0.1c-0.1,0-0.3-0.1-0.4-0.2
		c-0.1-0.1-0.1-0.2-0.1-0.4c0-0.3,0.2-0.5,0.5-0.7C-367.5,300.5-367,300.3-366.5,300.3z M-367,305.1c0.2,0,0.5-0.1,0.7-0.2
		c0.2-0.1,0.5-0.3,0.7-0.5v-1.7c-1.1,0.1-1.7,0.3-2,0.6c-0.2,0.3-0.4,0.5-0.4,0.8c0,0.3,0.1,0.5,0.3,0.7
		C-367.5,305-367.3,305.1-367,305.1z"/>
	<path d="M-361.5,300.3c0.3,0,0.6,0.1,0.9,0.2c0.1,0,0.2,0.1,0.2,0.1c0.1,0,0.3-0.1,0.5-0.2l0.5,1.5l-0.3,0
		c-0.1-0.4-0.4-0.7-0.8-0.9c-0.3-0.2-0.7-0.3-1.1-0.3c-0.2,0-0.4,0.1-0.6,0.3c-0.2,0.2-0.3,0.4-0.3,0.6c0,0.3,0.2,0.5,0.5,0.6
		l1.6,0.6c0.3,0.1,0.5,0.3,0.7,0.4c0.2,0.2,0.3,0.5,0.3,0.8c0,0.4-0.2,0.8-0.5,1c-0.3,0.3-0.7,0.4-1.2,0.4c-0.4,0-0.7-0.1-1-0.2
		c-0.1-0.1-0.2-0.1-0.3-0.1c-0.2,0-0.4,0.1-0.5,0.3l-0.6-1.8l0.3-0.1c0.5,1,1.2,1.4,2,1.4c0.3,0,0.6-0.1,0.8-0.3
		c0.2-0.2,0.2-0.4,0.2-0.7c0-0.2-0.1-0.3-0.2-0.5c-0.1-0.1-0.2-0.2-0.4-0.3l-1.5-0.5c-0.4-0.1-0.6-0.3-0.8-0.4
		c-0.2-0.2-0.2-0.5-0.2-0.8c0-0.3,0.1-0.6,0.4-0.9C-362.4,300.5-362,300.3-361.5,300.3z"/>
	<path d="M-356.6,298.7h0.4v1.9h1.7v0.3h-1.7v3.4c0,0.5,0.2,0.7,0.5,0.7c0.4,0,0.8-0.2,1.2-0.6l0.2,0.1c-0.2,0.4-0.5,0.6-0.8,0.7
		c-0.2,0.1-0.5,0.2-0.8,0.2c-0.3,0-0.6-0.1-0.7-0.3c-0.2-0.2-0.3-0.5-0.3-0.9v-3.4h-1.3v-0.3c0.7,0,1.1-0.1,1.3-0.4
		C-356.7,299.9-356.6,299.4-356.6,298.7z"/>
	<path d="M-351.3,300.3c1.1,0,1.8,0.8,2,2.3h-3.5c0,0.1,0,0.3,0,0.4c0,0.8,0.3,1.4,0.9,1.8c0.2,0.1,0.5,0.1,0.7,0.1
		c0.3,0,0.6-0.1,0.9-0.3c0.3-0.2,0.5-0.4,0.7-0.7l0.2,0.1c-0.2,0.4-0.5,0.8-0.9,1c-0.3,0.2-0.7,0.3-1.1,0.3c-0.4,0-0.8-0.1-1.1-0.3
		c-0.3-0.2-0.6-0.5-0.7-0.8c-0.2-0.4-0.3-0.8-0.3-1.3c0-0.4,0.1-0.8,0.2-1.2c0.2-0.5,0.4-0.8,0.7-1
		C-352.2,300.5-351.8,300.3-351.3,300.3z M-352.7,302.3h2.7c-0.1-1.1-0.5-1.6-1.3-1.6c-0.3,0-0.6,0.1-0.8,0.4
		c-0.3,0.2-0.4,0.5-0.5,0.9C-352.7,302-352.7,302.1-352.7,302.3z"/>
</g>
<path class="st3" d="M-376.4,280.2"/>
<g>
	<path class="st9" d="M30.2,21c0,4.3-4.2,10.7-10.1,10.7c-4.9,0-10.4-6.5-10.4-10.7s4.2-7.7,10.3-7.8C26.1,13.1,30.2,16.7,30.2,21z"
		/>
	<path class="st10" d="M29.3,19.7c0.5,2.9-4.2,5.5-9.5,5.5s-9.8-2.1-9.5-5.5c0.2-2.7,4.6-5.6,9.5-5.5C25,14.2,28.7,16.3,29.3,19.7z"
		/>
	<g id="XMLID_2_">
		<g>
			<path class="st6" d="M29.9,23.4c4-3.4,9.1,6.4-4.5,6.4l0.7-0.6l0.2,0c10.5-0.9,6.5-7.7,3.3-5.1L29.9,23.4z"/>
		</g>
		<g>
			<path class="st11" d="M26.1,29.3l-0.7,0.6c13.6,0.1,8.5-9.8,4.5-6.4l-0.2,0.8c3.1-2.7,7.2,4.2-3.3,5.1L26.1,29.3z"/>
		</g>
	</g>
	<g>
		<path class="st12" d="M16,7.5c0,1.3-2.3,1.3-2.3,2.6c0,1.3,2.3,1.3,2.3,2.6c0,1.3-2.3,1.3-2.3,2.6c0,1.3,2.3,1.3,2.3,2.6
			c0,1.3-2.3,1.3-2.3,2.6"/>
	</g>
	<g>
		<path class="st12" d="M21.2,7.3c0,1.3-2.3,1.3-2.3,2.6c0,1.3,2.3,1.3,2.3,2.6c0,1.3-2.3,1.3-2.3,2.6c0,1.3,2.3,1.3,2.3,2.6
			c0,1.3-2.3,1.3-2.3,2.6"/>
	</g>
	<g>
		<path class="st12" d="M26.6,7.3c0,1.3-2.3,1.3-2.3,2.6c0,1.3,2.3,1.3,2.3,2.6c0,1.3-2.3,1.3-2.3,2.6c0,1.3,2.3,1.3,2.3,2.6
			c0,1.3-2.3,1.3-2.3,2.6"/>
	</g>
</g>
<g>
	<path d="M35.6,16.3v0.4c0,0.1-0.3,0.3-0.9,0.3h-0.2v-5.2c-0.2,0.2-0.5,0.5-0.7,0.7l-0.2-0.1c0.8-1.1,1.6-2.9,2.1-4.7l1.6,0.5
		c-0.1,0.2-0.2,0.3-0.5,0.3c-0.1,0.3-0.3,0.6-0.4,0.8h1L38,8.7l1.1,1.1c-0.1,0.1-0.3,0.1-0.5,0.1c-0.4,0.4-1,1-1.5,1.5h1.5l0.5-0.6
		l1,0.9c-0.1,0.1-0.3,0.2-0.5,0.2v4.6c0,0.1-0.5,0.3-0.9,0.3h-0.2v-0.5H35.6z M35.1,17.2c0.5,1.4,0.2,2.4-0.3,2.8
		c-0.3,0.3-0.8,0.3-1-0.1c-0.1-0.3,0-0.7,0.4-0.9c0.4-0.3,0.8-1.1,0.8-1.9L35.1,17.2z M36.1,9.7c-0.3,0.5-0.6,1-1,1.4l0.6,0.2h1.1
		c0.2-0.5,0.4-1.2,0.5-1.6H36.1z M35.6,13.6h1v-1.8h-1V13.6z M35.6,15.9h1v-2h-1V15.9z M36.1,17.2c1.8,1.6,0.6,3.3-0.1,2.4
		c0.1-0.8,0.1-1.7-0.1-2.4L36.1,17.2z M37.3,17.1c2.3,1.4,1.2,3.1,0.4,2.3c0-0.7-0.3-1.6-0.6-2.3L37.3,17.1z M37.5,11.7v1.8h1.1
		v-1.8H37.5z M38.6,15.9v-2h-1.1v2H38.6z M38.6,17c2.7,1,1.7,3,0.8,2.2c0-0.7-0.4-1.6-0.9-2.1L38.6,17z M45.1,15.2
		c0,0,0.8,0.6,1.3,1.1c0,0.1-0.2,0.2-0.4,0.2h-2.7v3.3c0,0.1-0.4,0.3-1,0.3h-0.2v-3.6H40l-0.1-0.4h2.3v-2.5h-1.9l-0.1-0.4h2v-2.3H40
		l-0.1-0.4h3c0.4-0.9,0.7-2.1,0.9-2.9l1.7,0.5c-0.1,0.2-0.2,0.3-0.5,0.3c-0.4,0.6-1.1,1.5-1.7,2.2h1l0.7-0.9c0,0,0.8,0.6,1.3,1.1
		c0,0.1-0.2,0.2-0.3,0.2h-2.5v2.3h0.7l0.7-0.9c0,0,0.8,0.6,1.3,1.1c0,0.1-0.2,0.2-0.4,0.2h-2.3v2.5h1L45.1,15.2z M40.3,7.8
		c2.9,1,1.9,3.2,0.8,2.3c0-0.8-0.5-1.7-0.9-2.3L40.3,7.8z"/>
	<path d="M51.9,13.8l1.3,1c-0.1,0.1-0.3,0.2-0.5,0.3v4.4c0,0.1-0.6,0.4-1,0.4h-0.2v-1h-2.3v0.9c0,0.1-0.5,0.4-1,0.4h-0.2V14l1.3,0.5
		h2.1L51.9,13.8z M51.4,18.4v-3.5h-2.3v3.5H51.4z M51.3,13.2c0,0.1-0.6,0.4-1.1,0.4H50V8.1l1.4,0.5h4.1l0.6-0.7l1.3,1
		c-0.1,0.1-0.3,0.2-0.5,0.3v3.9c0,0.1-0.6,0.4-1.1,0.4h-0.2v-1h-4.3V13.2z M51.3,9v3.1h4.3V9H51.3z M59.5,14.8
		c-0.1,0.1-0.3,0.2-0.6,0.3v4.5c0,0.1-0.6,0.3-1.1,0.3h-0.2v-1.1h-2.4v0.9c0,0.1-0.5,0.4-1,0.4h-0.2V14l1.3,0.5h2.2l0.6-0.7
		L59.5,14.8z M57.7,18.4v-3.5h-2.4v3.5H57.7z"/>
	<path d="M71.7,8.3c0,0,0.8,0.6,1.3,1.1c0,0.1-0.2,0.2-0.4,0.2h-3v0.9c0,0.1-0.5,0.3-1.1,0.3h-0.2V9.7h-3.3v0.8l0-0.1l1.7,0.7
		c-0.1,0.2-0.2,0.3-0.6,0.2c-0.1,0.1-0.2,0.3-0.3,0.4h3.2l0.7-0.7l1.3,1.1c-0.1,0.1-0.3,0.2-0.7,0.2c-1.1,1.3-2.5,2.5-4.3,3.4h3.5
		l0.6-0.7l1.3,1c-0.1,0.1-0.3,0.2-0.5,0.3v3.3c0,0.1-0.7,0.3-1.1,0.3h-0.2v-0.8h-4.8v0.6c0,0.1-0.4,0.4-1,0.4h-0.2v-3.4
		c-0.9,0.3-1.8,0.6-2.8,0.8l-0.1-0.2c1-0.4,2-0.8,2.9-1.2v-1l1,0.4c1.7-1,3.1-2.1,4.2-3.5h-3.4c-0.2,0.3-0.5,0.5-0.8,0.8
		c2.3,0.7,1.3,2.4,0.4,1.6c0-0.5-0.3-1-0.6-1.4c-0.9,0.7-1.9,1.4-3,1.8l-0.1-0.1c1.5-1,2.9-2.7,3.6-4c-0.2,0.1-0.5,0.2-0.9,0.2h-0.2
		V9.7h-3.2l-0.1-0.4h3.3V7.8l1.7,0.2c0,0.2-0.1,0.3-0.5,0.4v1h3.3V7.8l1.7,0.2c0,0.2-0.1,0.3-0.5,0.4v1H71L71.7,8.3z M65.3,16.2
		c-0.1,0.1-0.3,0.1-0.4,0.2v2.5h4.8v-2.7H65.3z"/>
	<path d="M81.4,10.7c0,0.2-0.2,0.2-0.6,0.3c1.2,1.5,3.6,2.5,5.8,3l0,0.2c-0.6,0.2-0.9,0.7-1,1.2c-2.3-0.9-4.1-2.3-4.9-4.3
		c-1.2,1.9-3.8,3.8-6.6,4.7l-0.1-0.2c2.5-1.2,4.9-3.6,5.5-5.4L81.4,10.7z M74.2,9.8l-0.1-0.4h3.2V7.8L79,8c0,0.2-0.1,0.3-0.5,0.4
		v1.1h3.3V7.8L83.6,8c0,0.2-0.1,0.3-0.5,0.4v1.1h1.2l0.7-1c0,0,0.8,0.7,1.3,1.1c0,0.1-0.2,0.2-0.3,0.2h-2.9v1.1c0,0.1-0.5,0.3-1,0.3
		h-0.2V9.8h-3.3v1.1c0,0.1-0.5,0.3-1,0.3h-0.2V9.8H74.2z M79,16.9c-0.1,0.1-0.2,0.2-0.5,0.2c-0.8,1-2.1,2.1-3.7,2.7l-0.1-0.2
		c1.2-0.9,2.3-2.4,2.7-3.5L79,16.9z M80.9,15.5v3.2c0,0.9-0.2,1.4-1.7,1.6c0-0.4-0.1-0.7-0.3-0.9c-0.2-0.2-0.5-0.3-1.1-0.4v-0.2
		c0,0,1.3,0.1,1.6,0.1c0.2,0,0.3-0.1,0.3-0.2v-3.1h-3.2l-0.1-0.4h3.3v-1.8l1.7,0.1c0,0.2-0.1,0.3-0.4,0.3v1.3H82l0.7-0.9
		c0,0,0.8,0.6,1.3,1c0,0.1-0.2,0.2-0.4,0.2H80.9z M81.7,16.3c4.5,0.9,3.9,3.8,2.5,3c-0.4-1-1.6-2.2-2.6-2.9L81.7,16.3z"/>
</g>
<g>
	<path d="M48.1,24.7h-0.2c0-0.2,0.1-0.4,0.1-0.4c0-0.1,0-0.2-0.1-0.2c-0.1,0-0.2-0.1-0.4-0.1l-0.3,0l-0.1,0h-0.8
		c0,0.1-0.1,0.2-0.1,0.5c-0.2,0.5-0.3,1-0.3,1.3h0.8c0.2,0,0.3,0,0.4-0.1c0.1,0,0.1-0.1,0.1-0.3h0.2c-0.1,0.3-0.2,0.7-0.2,1.1H47
		c0-0.2,0-0.3,0-0.3c0-0.1,0-0.1-0.1-0.1c0,0-0.1,0-0.3,0h-0.8c-0.1,0.4-0.2,0.8-0.3,1.2s-0.2,0.8-0.3,1c0.2,0,0.4,0.1,0.6,0.1
		c0.1,0,0.2,0,0.3,0L46,28.6c-0.1,0-0.2,0-0.2,0c-0.1,0-0.3,0-0.6,0c-0.2,0-0.4,0-0.5,0c-0.3,0-0.6,0-0.9,0.1l0-0.2
		c0.2-0.1,0.4-0.1,0.5-0.2c0.1-0.1,0.1-0.1,0.2-0.2c0.1-0.2,0.2-0.7,0.5-1.6l0.6-2.5c-0.4,0-0.7,0.1-1,0.2s-0.5,0.4-0.7,0.6
		c-0.2,0.3-0.2,0.5-0.2,0.8c0,0.1,0,0.2,0,0.3c0,0.1,0.1,0.2,0.1,0.3c0.1,0.1,0.1,0.2,0.1,0.3c0,0.1,0,0.1-0.1,0.2s-0.1,0.1-0.2,0.1
		c-0.1,0-0.2-0.1-0.3-0.2c-0.1-0.2-0.1-0.4-0.1-0.7c0-0.6,0.2-1.1,0.7-1.5c0.4-0.5,1-0.7,1.7-0.7h1.6c0.2,0,0.4,0,0.6,0
		c0.1,0,0.2,0,0.4-0.1C48.3,24.1,48.2,24.5,48.1,24.7z"/>
	<path d="M48.9,28.5h-0.6l0.3-1.1c0.1-0.5,0.3-1.1,0.4-1.6c0-0.1,0-0.2,0-0.2c0-0.1,0-0.1-0.1-0.1c0,0-0.1,0-0.2,0.1
		c-0.1,0.1-0.2,0.2-0.5,0.4l-0.1-0.1c0.3-0.3,0.5-0.5,0.8-0.6c0.3-0.1,0.5-0.2,0.6-0.2c0,0,0.1,0,0.1,0c0,0,0,0.1,0,0.1
		c0,0,0,0.1-0.1,0.3l-0.2,0.7c0.3-0.4,0.6-0.8,0.9-1.1c0.2-0.1,0.3-0.2,0.4-0.2c0.1,0,0.2,0,0.2,0.1c0.1,0.1,0.1,0.1,0.1,0.2
		c0,0.1,0,0.1-0.1,0.2s-0.2,0.1-0.4,0.2c-0.2,0.1-0.4,0.2-0.5,0.2c-0.1,0.1-0.3,0.2-0.4,0.4c-0.2,0.2-0.3,0.4-0.3,0.5
		c-0.1,0.1-0.2,0.5-0.3,1L48.9,28.5z"/>
	<path d="M52.9,27.5l0.1,0.2c-0.7,0.6-1.3,1-1.7,1c-0.2,0-0.3-0.1-0.5-0.2c-0.1-0.1-0.2-0.3-0.2-0.6c0-0.6,0.2-1.2,0.5-1.8
		c0.4-0.7,0.9-1,1.4-1c0.2,0,0.3,0,0.5,0.1c0.1,0.1,0.2,0.2,0.2,0.4c0,0.2-0.1,0.4-0.2,0.5c-0.1,0.2-0.3,0.4-0.7,0.5
		c-0.2,0.1-0.5,0.3-1,0.5c0,0.1,0,0.3,0,0.4c0,0.2,0,0.3,0.1,0.4c0.1,0.1,0.2,0.1,0.3,0.1c0.1,0,0.2,0,0.4-0.1
		C52.2,27.9,52.5,27.8,52.9,27.5z M51.4,26.9c0.4-0.2,0.8-0.4,1-0.6c0.2-0.2,0.2-0.3,0.2-0.5c0-0.1,0-0.2-0.1-0.3
		c-0.1-0.1-0.1-0.1-0.2-0.1c-0.1,0-0.2,0-0.3,0.1c-0.1,0.1-0.2,0.3-0.3,0.5C51.5,26.3,51.5,26.6,51.4,26.9z"/>
	<path d="M55.4,25c0.2,0,0.4,0,0.6,0.1c0.1,0.1,0.2,0.2,0.2,0.3c0,0.1,0,0.1-0.1,0.2c-0.1,0.1-0.1,0.1-0.2,0.1c-0.1,0-0.1,0-0.1,0
		c0,0-0.1-0.1-0.2-0.2c-0.1-0.2-0.3-0.3-0.4-0.3c-0.1,0-0.2,0-0.3,0.1c-0.1,0.1-0.1,0.2-0.1,0.3c0,0.1,0,0.2,0.1,0.3
		c0.1,0.1,0.2,0.3,0.4,0.5c0.3,0.3,0.5,0.6,0.5,0.9s-0.1,0.5-0.4,0.8s-0.6,0.3-1,0.3c-0.3,0-0.6-0.1-0.7-0.2
		c-0.2-0.1-0.2-0.3-0.2-0.5c0-0.1,0-0.2,0.1-0.2c0.1-0.1,0.1-0.1,0.2-0.1c0.1,0,0.1,0,0.2,0.1c0.1,0.1,0.1,0.1,0.1,0.2
		c0,0,0,0.1,0,0.1c0,0,0,0.1,0,0.1c0,0.1,0,0.2,0.1,0.2c0.1,0.1,0.2,0.1,0.3,0.1c0.1,0,0.3,0,0.4-0.1c0.1-0.1,0.2-0.1,0.3-0.2
		c0.1-0.1,0.1-0.2,0.1-0.3c0-0.1,0-0.2-0.1-0.3s-0.2-0.3-0.4-0.5c-0.3-0.3-0.4-0.6-0.4-0.9c0-0.3,0.1-0.5,0.3-0.7
		C54.8,25.1,55.1,25,55.4,25z"/>
	<path d="M59.6,27.7l0.1,0.2c-0.3,0.3-0.5,0.5-0.8,0.7c-0.2,0.1-0.3,0.2-0.5,0.2c-0.1,0-0.2,0-0.2-0.1s-0.1-0.2-0.1-0.4
		c0-0.1,0-0.3,0.1-0.5s0.2-0.7,0.4-1.4c0.1-0.3,0.1-0.5,0.1-0.6c0-0.1,0-0.1-0.1-0.1c-0.1,0-0.3,0.1-0.4,0.2
		c-0.2,0.2-0.5,0.4-0.6,0.6c-0.1,0.2-0.2,0.4-0.3,0.7l-0.3,1.5h-0.6c0.1-0.5,0.2-0.9,0.3-1.2l0.6-2.7c0.1-0.5,0.3-0.9,0.4-1.1
		c0.2-0.3,0.4-0.5,0.7-0.6c0.3-0.2,0.6-0.2,0.9-0.2c0.1,0,0.2,0,0.3,0.1s0.1,0.1,0.1,0.2c0,0.1,0,0.1-0.1,0.2s-0.2,0.1-0.3,0.1
		c-0.1,0-0.2,0-0.3,0c-0.2,0-0.4-0.1-0.5-0.1c-0.1,0-0.2,0.1-0.3,0.2c-0.1,0.1-0.2,0.3-0.2,0.7l-0.5,2c0.3-0.3,0.7-0.6,1.1-0.9
		c0.2-0.1,0.4-0.2,0.5-0.2c0.1,0,0.2,0,0.3,0.1c0.1,0.1,0.1,0.2,0.1,0.3c0,0.1,0,0.2,0,0.3c0,0.2-0.1,0.5-0.3,0.9
		c-0.2,0.6-0.3,1-0.3,1.1c0,0.1,0,0.3,0,0.4c0,0,0,0.1,0,0.1c0,0,0,0,0.1,0c0.1,0,0.2-0.1,0.4-0.2C59.4,27.9,59.5,27.8,59.6,27.7z"
		/>
	<path d="M65.3,28.3l-0.1,0.2c-0.2,0-0.3,0.1-0.5,0.1c-0.1,0-0.3,0-0.6,0c-0.2,0-0.4,0-0.5,0c-0.3,0-0.6,0-0.9,0.1l0.1-0.2
		c0.3,0,0.5-0.1,0.6-0.2c0.1-0.1,0.2-0.2,0.2-0.3c0.1-0.2,0.2-0.7,0.4-1.6l0.5-2.2l0-0.1c-0.2,0-0.3,0-0.4,0c-0.5,0-0.9,0.1-1.2,0.2
		c-0.3,0.1-0.5,0.3-0.7,0.5c-0.2,0.2-0.2,0.4-0.2,0.7c0,0.1,0,0.2,0,0.2c0,0,0.1,0.1,0.2,0.2c0.1,0.1,0.1,0.2,0.1,0.3
		c0,0.1,0,0.1-0.1,0.2s-0.1,0.1-0.2,0.1c-0.1,0-0.2-0.1-0.3-0.2c-0.1-0.2-0.2-0.4-0.2-0.6c0-0.3,0.1-0.7,0.3-1
		c0.2-0.3,0.5-0.6,0.9-0.7c0.4-0.2,0.8-0.3,1.3-0.3c0.2,0,0.6,0,1.2,0.1c0.4,0,0.7,0.1,0.8,0.1s0.3,0,0.4-0.1
		c0.1-0.1,0.1-0.1,0.1-0.2c0,0,0-0.1,0-0.1c0-0.1,0-0.1,0-0.1c0-0.1,0-0.1,0.1-0.2s0.1-0.1,0.2-0.1c0.1,0,0.2,0,0.2,0.1
		c0.1,0.1,0.1,0.1,0.1,0.2c0,0.2-0.1,0.4-0.3,0.5C66.8,24,66.5,24,65.9,24c-0.2,0-0.4,0-0.6,0c0,0.1-0.1,0.4-0.3,1l-0.4,1.4
		l-0.2,0.9l-0.2,1c0.2,0,0.3,0,0.5,0C64.9,28.4,65.1,28.3,65.3,28.3z"/>
	<path d="M69,25l0.3-0.1L69,26c-0.1,0.4-0.2,0.9-0.4,1.4c-0.1,0.3-0.1,0.5-0.1,0.6c0,0.1,0,0.1,0.1,0.1c0,0,0.1,0,0.2-0.1
		c0.2-0.1,0.3-0.2,0.5-0.4l0.1,0.2c-0.3,0.3-0.5,0.5-0.6,0.5c-0.2,0.1-0.3,0.2-0.5,0.3c-0.1,0-0.2,0.1-0.3,0.1c-0.1,0-0.1,0-0.2,0
		s-0.1-0.1-0.1-0.1c0,0,0-0.1,0-0.2l0.2-0.6c-0.2,0.3-0.5,0.5-0.9,0.7c-0.2,0.1-0.4,0.2-0.6,0.2c-0.2,0-0.3-0.1-0.4-0.2
		c-0.1-0.2-0.2-0.4-0.2-0.6c0-0.3,0.1-0.6,0.2-1c0.2-0.4,0.4-0.7,0.6-1c0.3-0.3,0.5-0.5,0.8-0.6c0.2-0.1,0.5-0.2,0.9-0.2
		c0.1,0,0.2,0,0.3,0L69,25z M68.5,25.6c-0.1,0-0.3,0-0.4,0c-0.2,0-0.5,0.1-0.7,0.2c-0.2,0.1-0.4,0.4-0.5,0.7
		c-0.2,0.4-0.2,0.7-0.2,1.1c0,0.2,0,0.3,0.1,0.4s0.1,0.1,0.2,0.1c0.2,0,0.4-0.1,0.6-0.3c0.2-0.2,0.4-0.5,0.5-0.9L68.5,25.6z"/>
	<path d="M71.6,25c0.2,0,0.4,0,0.6,0.1c0.1,0.1,0.2,0.2,0.2,0.3c0,0.1,0,0.1-0.1,0.2c-0.1,0.1-0.1,0.1-0.2,0.1c-0.1,0-0.1,0-0.1,0
		c0,0-0.1-0.1-0.2-0.2c-0.1-0.2-0.3-0.3-0.4-0.3c-0.1,0-0.2,0-0.3,0.1c-0.1,0.1-0.1,0.2-0.1,0.3c0,0.1,0,0.2,0.1,0.3
		c0.1,0.1,0.2,0.3,0.4,0.5c0.3,0.3,0.5,0.6,0.5,0.9s-0.1,0.5-0.4,0.8s-0.6,0.3-1,0.3c-0.3,0-0.6-0.1-0.7-0.2
		c-0.2-0.1-0.2-0.3-0.2-0.5c0-0.1,0-0.2,0.1-0.2c0.1-0.1,0.1-0.1,0.2-0.1c0.1,0,0.1,0,0.2,0.1c0.1,0.1,0.1,0.1,0.1,0.2
		c0,0,0,0.1,0,0.1c0,0,0,0.1,0,0.1c0,0.1,0,0.2,0.1,0.2c0.1,0.1,0.2,0.1,0.3,0.1c0.1,0,0.3,0,0.4-0.1c0.1-0.1,0.2-0.1,0.3-0.2
		c0.1-0.1,0.1-0.2,0.1-0.3c0-0.1,0-0.2-0.1-0.3S71,27.2,70.8,27c-0.3-0.3-0.4-0.6-0.4-0.9c0-0.3,0.1-0.5,0.3-0.7
		C70.9,25.1,71.2,25,71.6,25z"/>
	<path d="M73.6,24.4l0.7-0.3L74,25.3h0.9l-0.1,0.3h-0.9L73.5,27c-0.1,0.4-0.2,0.7-0.2,0.9c0,0.1,0,0.1,0,0.2c0,0,0.1,0,0.1,0
		c0.1,0,0.2-0.1,0.4-0.2c0.2-0.1,0.5-0.3,0.7-0.5l0.2,0.2c-0.6,0.5-1,0.7-1.2,0.8c-0.2,0.1-0.4,0.2-0.5,0.2c-0.1,0-0.2,0-0.2-0.1
		c-0.1-0.1-0.1-0.2-0.1-0.4c0-0.2,0.1-0.5,0.2-0.9l0.4-1.7h-0.7l0.1-0.3h0.7L73.6,24.4z"/>
	<path d="M77.3,27.5l0.1,0.2c-0.7,0.6-1.3,1-1.7,1c-0.2,0-0.3-0.1-0.5-0.2c-0.1-0.1-0.2-0.3-0.2-0.6c0-0.6,0.2-1.2,0.5-1.8
		c0.4-0.7,0.9-1,1.4-1c0.2,0,0.3,0,0.5,0.1c0.1,0.1,0.2,0.2,0.2,0.4c0,0.2-0.1,0.4-0.2,0.5c-0.1,0.2-0.3,0.4-0.7,0.5
		c-0.2,0.1-0.5,0.3-1,0.5c0,0.1,0,0.3,0,0.4c0,0.2,0,0.3,0.1,0.4c0.1,0.1,0.2,0.1,0.3,0.1c0.1,0,0.2,0,0.4-0.1
		C76.7,27.9,77,27.8,77.3,27.5z M75.9,26.9c0.4-0.2,0.8-0.4,1-0.6c0.2-0.2,0.2-0.3,0.2-0.5c0-0.1,0-0.2-0.1-0.3
		c-0.1-0.1-0.1-0.1-0.2-0.1c-0.1,0-0.2,0-0.3,0.1c-0.1,0.1-0.2,0.3-0.3,0.5C76,26.3,75.9,26.6,75.9,26.9z"/>
</g>
<g>
</g>
<g>
</g>
<g>
</g>
<g>
</g>
<g>
</g>
<g>
</g>
<g>
</g>
</svg>
