<svg id="圖層_1" data-name="圖層 1" xmlns="http://www.w3.org/2000/svg" viewBox="0 0 61.8 16.9"><defs><style>.cls-1{fill:#fff;}</style></defs><path class="cls-1" d="M10.5,7.2v.3c0,.1-.3.3-.8.3H9.6V3.4A3.41,3.41,0,0,1,9,4l-.2-.1A12.68,12.68,0,0,0,10.5,0l1.4.4c0,.1-.2.2-.4.2-.1.2-.2.5-.3.7H12l.6-.6,1,.9c-.1.1-.2.1-.4.1A13.59,13.59,0,0,1,12,2.9h1.2l.4-.5.8.8a.56.56,0,0,1-.5.3V7.4c0,.1-.4.2-.7.2H13V7.2Zm-.4.7a2.26,2.26,0,0,1-.3,2.4.75.75,0,0,1-.9,0,.52.52,0,0,1,.26-.69h0A2.37,2.37,0,0,0,9.9,8ZM11,1.7a10.63,10.63,0,0,1-.8,1.1l.5.2h.9c.2-.4.3-1,.5-1.4H11Zm-.5,3.2h.8V3.4h-.8Zm0,1.9h.8V5.2h-.8ZM10.9,8c1.5,1.4.5,2.8-.1,2a4.5,4.5,0,0,0-.1-2ZM12,7.9c1.9,1.1,1,2.6.3,1.9a4.08,4.08,0,0,0-.5-1.9Zm.1-4.5V4.9H13V3.4ZM13,6.8V5.2h-.9V6.8Zm.1,1c2.3.8,1.4,2.5.7,1.9A3.18,3.18,0,0,0,13,7.9Zm5.4-1.5a12,12,0,0,1,1.1.9c0,.1-.1.2-.3.2H17.1v2.8c0,.1-.3.3-.8.3h-.2V7.4H14.2l-.1-.3H16V5H14.4l-.1-.3H16V2.8H14.2l-.1-.3h2.5A18.18,18.18,0,0,0,17.4,0l1.4.4c0,.1-.2.2-.4.2a7.85,7.85,0,0,1-1.5,1.8h.8l.6-.7a12,12,0,0,1,1.1.9c0,.1-.1.2-.3.2H17V4.7h.6l.6-.8a12,12,0,0,1,1.1.9c0,.1-.1.2-.3.2H17.1V7.1H18ZM14.5.1c2.5.9,1.6,2.7.7,2A3.51,3.51,0,0,0,14.4.2Z"/><path class="cls-1" d="M24.2,5.1l1.1.8a.59.59,0,0,1-.5.2V9.8c0,.1-.5.3-.9.3h-.2V9.2h-2v.7c0,.1-.4.3-.9.3h-.2v-5l1.1.4h1.8ZM23.8,9V6h-2V9Zm-.1-4.4c0,.1-.5.3-.9.3h-.2V.3l1.1.5h3.4l.5-.6,1.1.9a.59.59,0,0,1-.5.2V4.6c0,.1-.5.3-.9.3h-.2V4H23.5v.6Zm0-3.5V3.7h3.6V1.1ZM30.6,6a.59.59,0,0,1-.5.2V10c0,.1-.5.3-.9.3H29V9.4H27v.8c0,.1-.4.3-.9.3h-.2V5.2l1.1.4h1.9l.5-.6ZM29.1,9V6h-2V9Z"/><path class="cls-1" d="M40.8.5a12,12,0,0,1,1.1.9c0,.1-.1.2-.3.2H39.1v.8c0,.1-.4.2-.9.2H38v-1H35.2v.6l1.4.6a.59.59,0,0,1-.5.2l-.3.3h2.7l.7-.5,1.1.9c-.1.1-.3.1-.6.2a11.75,11.75,0,0,1-3.6,2.9H39l.5-.6,1.1.9a.59.59,0,0,1-.5.2v2.8c0,.1-.6.3-.9.3h0V9.7h-4v.5c0,.1-.3.3-.9.3h-.2V7.6a13.45,13.45,0,0,1-2.4.7l-.1-.2a18.62,18.62,0,0,0,2.5-1V6.3l.9.3a12.7,12.7,0,0,0,3.5-2.9H35.7a4.44,4.44,0,0,1-.7.6c2,.6,1.1,2,.3,1.4a3.1,3.1,0,0,0-.5-1.2A7.86,7.86,0,0,1,32.3,6l-.1-.1a10.41,10.41,0,0,0,3-3.4,2,2,0,0,1-.8.1h-.2v-1H31.5l-.1-.3h2.8V0l1.4.1c0,.1-.1.3-.4.3v.8H38V0l1.5.1c0,.1-.1.3-.4.3v.8h1.1ZM35.5,7.1c-.1,0-.2.1-.3.1V9.3h4V7.1Z"/><path class="cls-1" d="M49,2.5c0,.1-.2.2-.5.2,1,1.3,3,2.1,4.8,2.6v.2a1.31,1.31,0,0,0-.9,1,7.49,7.49,0,0,1-4.2-3.6,10.34,10.34,0,0,1-5.6,3.9l-.1-.2c2.1-1,4.1-3,4.6-4.5Zm-6.1-.8-.1-.3h2.7V.1l1.4.1c0,.1-.1.3-.4.3v.9h2.8V.1l1.5.1c0,.1-.1.3-.4.3v.9h1L52,.6s.7.6,1.1.9c0,.1-.1.2-.3.2H50.3v.9c0,.1-.4.3-.9.3h-.2V1.7H46.4v.9c0,.1-.4.3-.9.3h-.2V1.7Zm4.1,6c-.1.1-.2.2-.4.1A7.42,7.42,0,0,1,43.5,10l-.1-.1A7.75,7.75,0,0,0,45.7,7Zm1.6-1.2V9.2c0,.8-.2,1.2-1.5,1.3a1.17,1.17,0,0,0-.2-.7,1.52,1.52,0,0,0-.9-.4V9.2s1.1.1,1.3.1.2-.1.2-.2V6.5H44.8l-.1-.3h2.8V4.7l1.4.1c0,.2-.1.2-.3.3V6.2h.9l.6-.7a12,12,0,0,1,1.1.9c0,.1-.1.2-.3.2H48.6Zm.6.7c3.8.7,3.3,3.2,2.1,2.5a7.55,7.55,0,0,0-2.2-2.5Z"/><path class="cls-1" d="M20.6,13.2h-.2c0-.2.1-.3.1-.4s0-.1-.1-.2a.37.37,0,0,0-.3-.1h-1c0,.1-.1.2-.1.4a7.17,7.17,0,0,1-.3,1.1h1a.35.35,0,0,0,.1-.2H20c-.1.3-.1.6-.2.9h-.2v-.2c0-.1,0-.1-.1-.1h-1c-.1.3-.2.7-.3,1a4.76,4.76,0,0,1-.3.9h.8l.2.2H17.8a1.66,1.66,0,0,0-.7.1v-.2c.2,0,.3-.1.4-.1s.1-.1.2-.2a6.52,6.52,0,0,0,.4-1.3l.5-2.1a1.86,1.86,0,0,0-.8.2,2.62,2.62,0,0,0-.6.5,1.42,1.42,0,0,0-.2.7v.3c0,.1,0,.1.1.2a.37.37,0,0,1,.1.3c0,.1,0,.1-.1.1a.35.35,0,0,1-.2.1c-.1,0-.2,0-.2-.1a3.54,3.54,0,0,1-.1-.6,2.06,2.06,0,0,1,.5-1.3,1.83,1.83,0,0,1,1.4-.6h1.8a.37.37,0,0,0,.3-.1C20.7,12.8,20.7,13.1,20.6,13.2Z"/><path class="cls-1" d="M21.3,16.5h-.5l.2-.9c.1-.5.2-.9.3-1.3v-.2c0-.1,0-.1-.1-.1a.3.3,0,0,0-.2.1c-.1,0-.2.2-.4.4l-.1-.1a1.84,1.84,0,0,1,.7-.5,1.69,1.69,0,0,1,.5-.2h.1V14l-.1.5a4,4,0,0,1,.8-1,.76.76,0,0,1,.4-.2c.1,0,.1,0,.2.1a.35.35,0,0,1,.1.2c0,.1,0,.1-.1.2a1.21,1.21,0,0,0-.3.2c-.2.1-.3.1-.4.2l-.4.4c-.2.2-.2.3-.3.4s-.1.4-.2.9Z"/><path class="cls-1" d="M24.6,15.6l.1.2a2.73,2.73,0,0,1-1.5.8.52.52,0,0,1-.4-.2.74.74,0,0,1-.1-.5,3,3,0,0,1,.5-1.5,1.23,1.23,0,0,1,1.2-.8c.2,0,.3,0,.4.1a.37.37,0,0,1,.1.3.52.52,0,0,1-.2.4,3.62,3.62,0,0,1-.6.5,4.26,4.26,0,0,1-.9.4v.4c0,.2,0,.3.1.3s.1.1.2.1a.37.37,0,0,0,.3-.1C24.1,16,24.3,15.8,24.6,15.6Zm-1.2-.5c.4-.2.7-.3.8-.5a.76.76,0,0,0,.2-.4c0-.1,0-.2-.1-.2s-.1-.1-.2-.1a.37.37,0,0,0-.3.1,1.31,1.31,0,0,0-.3.4C23.5,14.6,23.4,14.8,23.4,15.1Z"/><path class="cls-1" d="M26.7,13.5a.74.74,0,0,1,.5.1c.1.1.2.2.2.3s0,.1-.1.2a.35.35,0,0,1-.2.1H27l-.1-.1c-.1-.2-.2-.2-.3-.2a.44.44,0,0,0-.4.46.43.43,0,0,0,.1.24l.4.4a1,1,0,0,1,.4.8.71.71,0,0,1-.3.6,1.9,1.9,0,0,1-.8.3.87.87,0,0,1-.6-.2.76.76,0,0,1-.2-.4c0-.1,0-.1.1-.2s.1-.1.2-.1.1,0,.2.1a.35.35,0,0,1,.1.2v.2c0,.1,0,.1.1.2s.1.1.3.1a.37.37,0,0,0,.3-.1c.1-.1.2-.1.2-.2a.51.51,0,0,0,0-.6,1.31,1.31,0,0,1-.3-.4c-.2-.3-.4-.5-.4-.8a.83.83,0,0,1,.3-.6C26.2,13.6,26.5,13.5,26.7,13.5Z"/><path class="cls-1" d="M30.3,15.7l.1.1a4.44,4.44,0,0,1-.7.6.79.79,0,0,1-.4.1c-.1,0-.1,0-.2-.1a.37.37,0,0,1-.1-.3.79.79,0,0,1,.1-.4,3.53,3.53,0,0,1,.3-1.1,1.71,1.71,0,0,0,.1-.5c0-.1,0-.1-.1-.1a.79.79,0,0,0-.4.1,1.21,1.21,0,0,0-.5.5.87.87,0,0,0-.2.6L28,16.5h-.5c.1-.4.2-.7.3-1l.5-2.2a3.09,3.09,0,0,1,.4-1,2.62,2.62,0,0,1,.6-.5,1.94,1.94,0,0,1,.7-.2c.1,0,.2,0,.2.1s.1.1.1.2,0,.1-.1.2-.1.1-.2.1h-.6a.37.37,0,0,0-.3.1c-.1.1-.1.3-.2.6l-.4,1.7a5.57,5.57,0,0,1,.9-.7c.2-.1.3-.2.5-.2s.2,0,.2.1.1.1.1.2v.2a4.29,4.29,0,0,1-.2.7,6.78,6.78,0,0,1-.3.9v.4h.1c.1,0,.2-.1.3-.2S30.2,15.8,30.3,15.7Z"/><path class="cls-1" d="M35.1,16.3v.2H33.6a1.66,1.66,0,0,0-.7.1v-.2a4,4,0,0,0,.5-.1.75.75,0,0,0,.2-.3,9.72,9.72,0,0,0,.4-1.4l.4-1.8v-.1h-.3a2.8,2.8,0,0,0-1,.1,1.28,1.28,0,0,0-.6.4,1.42,1.42,0,0,0-.2.6V14l.2.2a.3.3,0,0,1,.1.2c0,.1,0,.1-.1.2a.35.35,0,0,1-.2.1c-.1,0-.2,0-.2-.1a.74.74,0,0,1-.1-.5,1.12,1.12,0,0,1,.3-.8,1.33,1.33,0,0,1,.7-.6,3.75,3.75,0,0,1,1.1-.2,4.78,4.78,0,0,1,1,.1,5.36,5.36,0,0,1,.7.1.37.37,0,0,0,.3-.1c.1-.1.1-.1.1-.2v-.2c0-.1,0-.1.1-.2a.35.35,0,0,1,.2-.1c.1,0,.1,0,.2.1s.1.1.1.2a.91.91,0,0,1-.3.5,2,2,0,0,1-.9.2h-.5c0,.1-.1.4-.2.9L34.6,15l-.2.5-.2.8Z"/><path class="cls-1" d="M38.2,13.5h.2l-.3.9-.3,1.2a1.09,1.09,0,0,0-.1.5c0,.1,0,.1.1.1a.3.3,0,0,0,.2-.1c.1-.1.3-.2.4-.3l.1.1c-.3.2-.4.4-.5.4a.76.76,0,0,1-.4.2h-.4v-.2l.1-.5a4.44,4.44,0,0,1-.7.6c-.2.1-.3.2-.5.2a.37.37,0,0,1-.3-.1.74.74,0,0,1-.1-.5,3.24,3.24,0,0,1,.2-.8,2.3,2.3,0,0,1,.5-.8,2.88,2.88,0,0,1,.7-.5,1.51,1.51,0,0,1,.7-.1H38Zm-.5.5h-.3a.72.72,0,0,0-.5.2.93.93,0,0,0-.4.6,3.09,3.09,0,0,0-.2.9c0,.2,0,.3.1.3s.1.1.2.1a.91.91,0,0,0,.5-.3,1.64,1.64,0,0,0,.4-.7Z"/><path class="cls-1" d="M40.3,13.5a.74.74,0,0,1,.5.1c.1.1.2.2.2.3s0,.1-.1.2a.35.35,0,0,1-.2.1h-.1l-.1-.1c-.1-.2-.2-.2-.3-.2a.37.37,0,0,0-.3.1c-.1.1-.1,0-.1.1a.37.37,0,0,0,.1.3l.4.4a1,1,0,0,1,.4.8.71.71,0,0,1-.3.6,1.9,1.9,0,0,1-.8.3.87.87,0,0,1-.6-.2.76.76,0,0,1-.2-.4c0-.1,0-.1.1-.2s.1-.1.2-.1.1,0,.2.1a.35.35,0,0,1,.1.2v.2c0,.1,0,.1.1.2s.1.1.3.1a.37.37,0,0,0,.3-.1c.1-.1.2-.1.2-.2a.51.51,0,0,0,0-.6,1.31,1.31,0,0,1-.3-.4c-.2-.3-.4-.5-.4-.8a.83.83,0,0,1,.3-.6C39.8,13.6,40,13.5,40.3,13.5Z"/><path class="cls-1" d="M42,13l.6-.2-.2,1h.7L43,14h-.7L42,15.2a4.29,4.29,0,0,0-.2.7V16h.1a.37.37,0,0,0,.3-.1,2.17,2.17,0,0,0,.6-.4l.1.2a5.79,5.79,0,0,1-1,.7.79.79,0,0,1-.4.1c-.1,0-.2,0-.2-.1s-.1-.2-.1-.3a2.7,2.7,0,0,1,.1-.8l.4-1.4h-.6l.1-.2h.6Z"/><path class="cls-1" d="M45.2,15.6l.1.2a2.73,2.73,0,0,1-1.5.8.52.52,0,0,1-.4-.2.74.74,0,0,1-.1-.5,3,3,0,0,1,.5-1.5,1.23,1.23,0,0,1,1.2-.8c.2,0,.3,0,.4.1a.37.37,0,0,1,.1.3.52.52,0,0,1-.2.4,3.62,3.62,0,0,1-.6.5,4.26,4.26,0,0,1-.9.4v.4c0,.2,0,.3.1.3s.1.1.2.1a.37.37,0,0,0,.3-.1A2,2,0,0,0,45.2,15.6Zm-1.3-.5c.4-.2.7-.3.8-.5a.76.76,0,0,0,.2-.4c0-.1,0-.2-.1-.2s-.1-.1-.2-.1a.37.37,0,0,0-.3.1,1.31,1.31,0,0,0-.3.4C44.1,14.6,44,14.8,43.9,15.1Z"/></svg>