<?xml version="1.0" encoding="utf-8"?>
<!-- Generator: Adobe Illustrator 25.2.0, SVG Export Plug-In . SVG Version: 6.00 Build 0)  -->
<svg version="1.1" id="圖層_1" xmlns="http://www.w3.org/2000/svg" xmlns:xlink="http://www.w3.org/1999/xlink" x="0px" y="0px"
	 viewBox="0 0 102.8 37.8" style="enable-background:new 0 0 102.8 37.8;" xml:space="preserve">
<style type="text/css">
	.st0{enable-background:new    ;}
	.st1{fill:#040000;}
</style>
<g>
	<g>
		<path d="M12.8,17.8v0.6c0,0.1-0.4,0.5-1.2,0.6c1.1,2.3,0.7,4.1-0.2,4.8c-0.6,0.5-1.7,0.3-2.1-0.5c-0.3-0.8,0.2-1.5,0.9-1.8
			c0.6-0.4,1.2-1.4,1.1-2.4c-0.2,0-0.4,0-0.6,0h-0.4v-8.4C10,11,9.6,11.3,9.2,11.5L9,11.3c1.2-1.9,2.3-4.9,2.9-7.8l3.6,1.1
			c-0.1,0.3-0.3,0.5-0.8,0.5C14.4,5.5,14.2,6,14,6.4h0.8L16.1,5l2.3,2.1c-0.2,0.2-0.4,0.2-0.8,0.3c-0.8,0.6-2,1.6-2.9,2.2h2.1
			l1.1-1.2l2.1,1.8c-0.2,0.2-0.4,0.3-0.8,0.4V18c0,0.1-1,0.5-2,0.5h-0.5v-0.8H12.8z M13.6,7c-0.5,0.8-1.1,1.5-1.7,2.2L13,9.6h1.2
			c0.2-0.8,0.5-1.8,0.6-2.6H13.6z M12.8,13.2h1v-3h-1V13.2z M12.8,17.2h1v-3.3h-1V17.2z M13.1,19.1c3.7,2.7,1.1,5.8-0.3,4
			c0.3-1.3,0.2-2.8,0-3.9L13.1,19.1z M15,19c4.5,2,2.2,5.5,0.5,3.8c0.1-1.2-0.3-2.7-0.8-3.7L15,19z M15.7,10.2v3h1v-3H15.7z
			 M16.8,17.2v-3.3h-1v3.3H16.8z M17.2,18.8c5.3,1.2,3.1,5.3,1.1,3.6c0.1-1.2-0.5-2.6-1.3-3.5L17.2,18.8z M27.5,15.5
			c0,0,1.6,1.3,2.5,2.2c-0.1,0.2-0.3,0.3-0.6,0.3h-3.9v5.3c0,0.2-0.9,0.7-2.4,0.7h-0.5V18h-3l-0.2-0.6h3.2v-4H20l-0.2-0.6h2.8V9.1
			h-3l-0.2-0.6H24c0.5-1.4,0.9-3.4,1.1-4.8l3.6,0.9C28.6,4.8,28.4,5,27.9,5c-0.8,1-2.1,2.4-3.3,3.4h1.2l1.4-1.8c0,0,1.6,1.2,2.5,2.1
			c0,0.2-0.3,0.3-0.6,0.3h-3.5v3.7h0.1l1.4-1.9c0,0,1.6,1.3,2.5,2.2c-0.1,0.2-0.3,0.3-0.6,0.3h-3.4v4h0.6L27.5,15.5z M19.6,3.8
			c6,1.2,3.5,5.9,1.1,3.9c0-1.3-0.6-2.8-1.3-3.8L19.6,3.8z"/>
		<path d="M38.3,13.3l2.7,2.1c-0.1,0.2-0.4,0.4-0.8,0.5v6.9c0,0.2-1.4,0.8-2.5,0.8h-0.5v-1.9h-2.4v1.4c0,0.3-1.3,0.9-2.5,0.9h-0.4
			V13.5l3,1.2h2L38.3,13.3z M37.2,21v-5.6h-2.4V21H37.2z M38.3,12.5c0,0.3-1.4,1-2.7,1h-0.5V4.2l3.2,1.2h5l1.4-1.5L47.6,6
			c-0.1,0.2-0.4,0.4-0.9,0.5v5.9c0,0.2-1.5,0.8-2.6,0.8h-0.5v-1.8h-5.4V12.5z M38.3,6v4.8h5.4V6H38.3z M51,15.3
			c-0.1,0.2-0.4,0.4-0.9,0.5v7.1c0,0.2-1.5,0.7-2.5,0.7h-0.5v-2h-2.5v1.4c0,0.3-1.3,0.9-2.5,0.9h-0.4V13.5l3,1.2h2.2l1.4-1.5
			L51,15.3z M47.1,21v-5.6h-2.5V21H47.1z"/>
		<path d="M70,4.5c0,0,1.7,1.3,2.6,2.2c-0.1,0.2-0.3,0.3-0.6,0.3h-4.3v1.5c0,0.2-1.2,0.6-2.6,0.6h-0.5V7.1H60v1.2l3.4,1.3
			C63.3,9.8,63,10,62.3,10c-0.2,0.2-0.4,0.5-0.6,0.7h3.5l1.5-1.5l2.8,2.4c-0.2,0.2-0.5,0.3-1.1,0.3c-1.5,2-3.6,3.7-6.1,5.1h4
			l1.4-1.5l2.8,2.1c-0.1,0.2-0.4,0.4-0.8,0.5v5.1c0,0.2-1.6,0.7-2.6,0.7h-0.5v-1.4h-6.1v0.8c0,0.2-0.9,0.8-2.5,0.8h-0.6V19
			c-1.4,0.4-2.9,0.8-4.4,1l-0.1-0.3c1.6-0.6,3.2-1.3,4.6-2.1v-1.9l2,0.7c2.3-1.5,4.2-3.2,5.6-5.2h-4c-0.4,0.4-0.8,0.7-1.3,1.1
			c4.1,0.7,1.5,3.9-0.3,2.3c0-0.6-0.1-1.3-0.3-1.8c-1.5,1.1-3.4,2-5.4,2.6l-0.1-0.2c2.3-1.6,4.3-4.1,5.4-6.1
			c-0.4,0.1-0.9,0.2-1.5,0.2h-0.5V7.1h-4.6l-0.2-0.6h4.8V3.7l3.8,0.3c0,0.3-0.2,0.5-0.8,0.6v1.8h4.6V3.7l3.8,0.3
			c0,0.3-0.2,0.5-0.7,0.6v1.8h0.9L70,4.5z M61,17.6c-0.2,0.1-0.4,0.2-0.6,0.3v4h6.1v-4.3H61z"/>
		<path d="M85.9,9.2c-0.2,0.1-0.4,0.1-0.8,0.2c2,2.4,6.1,3.3,9.2,3.7v0.3c-1.3,0.4-2.1,1.8-2.3,3c-3.5-1.3-6-3.4-7.3-6.8
			c-2,3.2-6.5,6.3-11.3,7.6L73.5,17c3.3-1.8,6.4-4.9,7.8-7.6c-0.5,0.2-1.2,0.3-2,0.3h-0.5V7.2h-4.6L74,6.6h4.8V3.8l3.8,0.3
			c0,0.3-0.2,0.5-0.7,0.6v1.9h4.1V3.8l3.8,0.3c0,0.3-0.2,0.5-0.8,0.6v1.9h1l1.4-2c0,0,1.7,1.3,2.6,2.2c0,0.2-0.3,0.3-0.6,0.3H89v1.7
			c0,0.2-1.2,0.6-2.6,0.6h-0.5V9.2z M82.2,18.8c-0.1,0.2-0.3,0.4-0.8,0.3c-1.4,1.7-3.7,3.3-6.5,4.2l-0.2-0.2c1.9-1.6,3.4-4.1,4.1-6
			L82.2,18.8z M85.6,16.5v4.3c0,2-0.5,3-3.6,3.3c0-0.9-0.1-1.6-0.4-2c-0.3-0.4-0.7-0.7-1.7-0.9v-0.3c0,0,1.9,0.1,2.3,0.1
			c0.3,0,0.4-0.1,0.4-0.3v-4.3h-4.8l-0.2-0.6h4.9v-2.7l3.8,0.3c0,0.3-0.2,0.5-0.7,0.5v1.9H86l1.4-1.9c0,0,1.6,1.3,2.5,2.1
			c-0.1,0.2-0.3,0.3-0.6,0.3H85.6z M85.9,8.8V7.2h-4.1v0.7l0-0.2L85.9,8.8z M86.1,17.7c8.2,0.6,6.5,6.6,3.4,4.9
			c-0.7-1.7-2.2-3.6-3.5-4.8L86.1,17.7z"/>
	</g>
	<g class="st0">
		<path class="st1" d="M33.9,28.7h-0.3c0.1-0.4,0.1-0.6,0.1-0.7c0-0.1,0-0.2-0.1-0.3c-0.1-0.1-0.3-0.1-0.5-0.1l-0.4,0l-0.1,0h-1.2
			c0,0.1-0.1,0.3-0.2,0.7c-0.2,0.8-0.4,1.5-0.5,2h1.2c0.3,0,0.5,0,0.6-0.1c0.1-0.1,0.2-0.2,0.2-0.4h0.3c-0.1,0.5-0.2,1.1-0.3,1.6
			h-0.3c0-0.2,0-0.4,0-0.4c0-0.1,0-0.2-0.1-0.2c-0.1,0-0.2,0-0.5-0.1h-1.2c-0.1,0.6-0.3,1.2-0.5,1.9c-0.2,0.7-0.4,1.2-0.5,1.6
			c0.3,0.1,0.6,0.1,0.9,0.1c0.2,0,0.3,0,0.5,0l-0.1,0.4c-0.1,0-0.2,0-0.3,0c-0.1,0-0.4,0-0.9,0c-0.3,0-0.5,0-0.7,0
			c-0.4,0-0.8,0-1.3,0.1l0.1-0.3c0.4-0.1,0.6-0.2,0.7-0.2c0.1-0.1,0.2-0.2,0.3-0.3c0.1-0.3,0.4-1,0.7-2.4l0.9-3.7
			c-0.6,0-1,0.1-1.4,0.4c-0.4,0.2-0.7,0.5-1,0.9c-0.2,0.4-0.4,0.8-0.4,1.2c0,0.2,0,0.3,0.1,0.5c0,0.1,0.1,0.2,0.2,0.4
			c0.1,0.2,0.2,0.4,0.2,0.5c0,0.1,0,0.2-0.1,0.2s-0.2,0.1-0.3,0.1c-0.2,0-0.3-0.1-0.4-0.3c-0.1-0.2-0.2-0.6-0.2-1
			c0-0.8,0.3-1.6,1-2.3c0.6-0.7,1.5-1.1,2.6-1.1h2.4c0.3,0,0.6,0,0.9,0c0.1,0,0.3-0.1,0.6-0.1C34.1,27.9,34,28.4,33.9,28.7z"/>
		<path class="st1" d="M35.1,34.5h-0.9l0.4-1.7c0.2-0.8,0.4-1.6,0.5-2.4c0-0.2,0.1-0.3,0.1-0.3c0-0.1,0-0.2-0.1-0.2
			c-0.1,0-0.2,0-0.3,0.1c-0.1,0.1-0.4,0.3-0.7,0.6l-0.2-0.2c0.4-0.4,0.8-0.8,1.2-1c0.4-0.2,0.7-0.3,0.9-0.3c0.1,0,0.1,0,0.2,0.1
			c0,0,0.1,0.1,0.1,0.1s0,0.2-0.1,0.4L35.8,31c0.4-0.7,0.9-1.2,1.4-1.7c0.3-0.2,0.5-0.3,0.6-0.3c0.1,0,0.2,0,0.3,0.1
			s0.1,0.2,0.1,0.3c0,0.1,0,0.2-0.1,0.3s-0.3,0.2-0.6,0.3c-0.3,0.1-0.6,0.2-0.7,0.4c-0.2,0.1-0.4,0.4-0.6,0.7
			c-0.2,0.3-0.4,0.6-0.5,0.8c-0.1,0.2-0.2,0.7-0.4,1.6L35.1,34.5z"/>
		<path class="st1" d="M40.9,32.9l0.2,0.3c-1,1-1.9,1.5-2.6,1.5c-0.3,0-0.5-0.1-0.7-0.3c-0.2-0.2-0.2-0.5-0.2-1
			c0-0.9,0.3-1.8,0.8-2.7c0.6-1,1.3-1.5,2.2-1.5c0.3,0,0.5,0.1,0.7,0.2c0.2,0.1,0.2,0.4,0.2,0.6c0,0.3-0.1,0.5-0.3,0.8
			c-0.2,0.3-0.5,0.5-1,0.8c-0.2,0.1-0.7,0.4-1.5,0.7c0,0.2-0.1,0.4-0.1,0.6c0,0.3,0,0.5,0.1,0.6c0.1,0.1,0.2,0.2,0.4,0.2
			c0.2,0,0.4,0,0.6-0.1C40,33.6,40.4,33.3,40.9,32.9z M38.8,32c0.7-0.3,1.2-0.6,1.5-1c0.2-0.2,0.3-0.5,0.3-0.7c0-0.2,0-0.3-0.1-0.4
			c-0.1-0.1-0.2-0.2-0.4-0.2c-0.2,0-0.3,0.1-0.4,0.2c-0.2,0.2-0.4,0.4-0.5,0.7C39,31.1,38.8,31.6,38.8,32z"/>
		<path class="st1" d="M44.7,29.2c0.4,0,0.6,0.1,0.8,0.2c0.2,0.1,0.3,0.3,0.3,0.5c0,0.1,0,0.2-0.1,0.3c-0.1,0.1-0.2,0.1-0.3,0.1
			c-0.1,0-0.1,0-0.2-0.1c-0.1,0-0.1-0.1-0.2-0.3c-0.2-0.3-0.4-0.4-0.6-0.4c-0.2,0-0.3,0.1-0.4,0.2c-0.1,0.1-0.2,0.3-0.2,0.5
			c0,0.2,0,0.3,0.1,0.5c0.1,0.2,0.3,0.4,0.6,0.8c0.5,0.5,0.7,1,0.7,1.4s-0.2,0.8-0.6,1.2c-0.4,0.3-0.8,0.5-1.4,0.5
			c-0.5,0-0.9-0.1-1.1-0.3s-0.4-0.5-0.4-0.7c0-0.1,0-0.3,0.1-0.4c0.1-0.1,0.2-0.1,0.3-0.1c0.1,0,0.2,0,0.3,0.1
			c0.1,0.1,0.1,0.2,0.1,0.3c0,0,0,0.1,0,0.2c0,0.1,0,0.1,0,0.1c0,0.1,0.1,0.3,0.2,0.4c0.1,0.1,0.3,0.1,0.5,0.1c0.2,0,0.4,0,0.6-0.1
			s0.3-0.2,0.4-0.3c0.1-0.2,0.1-0.3,0.1-0.5c0-0.1,0-0.3-0.1-0.4c-0.1-0.2-0.3-0.4-0.6-0.7c-0.4-0.5-0.6-0.9-0.6-1.4
			c0-0.4,0.2-0.8,0.5-1.1C43.8,29.4,44.2,29.2,44.7,29.2z"/>
		<path class="st1" d="M51,33.2l0.2,0.2c-0.4,0.4-0.8,0.8-1.2,1c-0.3,0.2-0.5,0.3-0.7,0.3c-0.1,0-0.3-0.1-0.3-0.2s-0.1-0.3-0.1-0.5
			c0-0.2,0-0.4,0.1-0.7c0.1-0.3,0.3-1,0.6-2.1c0.1-0.5,0.2-0.8,0.2-0.9c0-0.1-0.1-0.2-0.2-0.2c-0.2,0-0.4,0.1-0.6,0.3
			c-0.4,0.2-0.7,0.5-1,0.9c-0.2,0.2-0.3,0.6-0.4,1.1L47,34.5h-0.9c0.2-0.7,0.3-1.3,0.5-1.8l0.9-4c0.2-0.7,0.4-1.3,0.7-1.7
			c0.3-0.4,0.6-0.7,1.1-1c0.4-0.2,0.9-0.4,1.3-0.4c0.2,0,0.3,0,0.4,0.1c0.1,0.1,0.2,0.2,0.2,0.3c0,0.1-0.1,0.2-0.2,0.3
			c-0.1,0.1-0.2,0.1-0.4,0.1c-0.1,0-0.2,0-0.4,0c-0.4-0.1-0.6-0.1-0.7-0.1c-0.2,0-0.3,0.1-0.5,0.2c-0.1,0.2-0.2,0.5-0.4,1.1
			l-0.7,3.1c0.5-0.5,1-1,1.6-1.3c0.3-0.2,0.6-0.3,0.8-0.3c0.2,0,0.3,0,0.4,0.1c0.1,0.1,0.1,0.2,0.1,0.4c0,0.1,0,0.3,0,0.4
			c-0.1,0.2-0.2,0.7-0.4,1.3c-0.3,0.9-0.4,1.4-0.5,1.7s-0.1,0.4-0.1,0.6c0,0.1,0,0.1,0,0.2c0,0,0.1,0,0.1,0c0.1,0,0.3-0.1,0.6-0.4
			C50.6,33.5,50.8,33.4,51,33.2z"/>
		<path class="st1" d="M59.4,34.2l-0.1,0.4c-0.3,0.1-0.5,0.1-0.7,0.1c-0.2,0-0.5,0-0.9-0.1c-0.3,0-0.6,0-0.8,0c-0.4,0-0.8,0-1.3,0.1
			l0.1-0.3c0.4,0,0.7-0.1,0.9-0.3c0.1-0.1,0.3-0.3,0.3-0.5c0.1-0.2,0.3-1,0.7-2.4l0.8-3.3l0-0.2c-0.2,0-0.4,0-0.5,0
			c-0.8,0-1.4,0.1-1.8,0.3c-0.4,0.2-0.8,0.4-1,0.7c-0.2,0.3-0.3,0.7-0.3,1c0,0.1,0,0.2,0.1,0.4c0,0.1,0.1,0.2,0.3,0.4
			c0.1,0.2,0.2,0.3,0.2,0.4c0,0.1,0,0.2-0.1,0.3c-0.1,0.1-0.2,0.1-0.3,0.1c-0.2,0-0.3-0.1-0.4-0.2c-0.2-0.2-0.2-0.6-0.2-0.9
			c0-0.5,0.2-1,0.5-1.5c0.3-0.5,0.7-0.9,1.3-1.1c0.5-0.3,1.2-0.4,2-0.4c0.4,0,1,0.1,1.8,0.2c0.6,0.1,1,0.1,1.3,0.1
			c0.3,0,0.4,0,0.5-0.1c0.1-0.1,0.2-0.2,0.2-0.4c0,0,0-0.1,0-0.2c0-0.1,0-0.1,0-0.2c0-0.1,0-0.2,0.1-0.3c0.1-0.1,0.2-0.1,0.3-0.1
			c0.1,0,0.2,0,0.3,0.1s0.1,0.2,0.1,0.4c0,0.3-0.2,0.6-0.5,0.8c-0.3,0.2-0.9,0.3-1.7,0.3c-0.3,0-0.6,0-0.9,0c0,0.1-0.2,0.7-0.4,1.5
			l-0.5,2.2l-0.3,1.3l-0.3,1.5c0.3,0,0.5,0,0.7,0C58.8,34.3,59.1,34.2,59.4,34.2z"/>
		<path class="st1" d="M64.9,29.1l0.4-0.1l-0.5,1.6c-0.2,0.6-0.4,1.4-0.5,2.2c-0.1,0.4-0.1,0.7-0.1,0.9c0,0.1,0.1,0.2,0.2,0.2
			c0.1,0,0.2,0,0.3-0.1c0.3-0.2,0.5-0.3,0.7-0.6l0.2,0.2c-0.5,0.4-0.8,0.7-0.9,0.8c-0.3,0.2-0.5,0.3-0.8,0.4
			c-0.2,0.1-0.3,0.1-0.5,0.1c-0.1,0-0.2,0-0.2-0.1s-0.1-0.1-0.1-0.2c0-0.1,0-0.1,0-0.3l0.2-0.9c-0.4,0.4-0.8,0.8-1.3,1.1
			c-0.3,0.2-0.6,0.3-0.8,0.3c-0.2,0-0.4-0.1-0.5-0.3c-0.2-0.2-0.3-0.5-0.3-0.9c0-0.4,0.1-0.9,0.3-1.5s0.5-1,0.9-1.5
			c0.4-0.4,0.8-0.8,1.2-1c0.3-0.2,0.8-0.2,1.3-0.2c0.1,0,0.3,0,0.4,0L64.9,29.1z M64.1,30.1c-0.2,0-0.4-0.1-0.6-0.1
			c-0.4,0-0.7,0.1-1,0.3s-0.5,0.6-0.8,1.1c-0.2,0.5-0.4,1.1-0.4,1.6c0,0.3,0,0.5,0.1,0.6s0.2,0.2,0.4,0.2c0.3,0,0.6-0.2,0.9-0.5
			c0.3-0.3,0.6-0.8,0.7-1.3L64.1,30.1z"/>
		<path class="st1" d="M68.7,29.2c0.4,0,0.6,0.1,0.8,0.2c0.2,0.1,0.3,0.3,0.3,0.5c0,0.1,0,0.2-0.1,0.3c-0.1,0.1-0.2,0.1-0.3,0.1
			c-0.1,0-0.1,0-0.2-0.1c-0.1,0-0.1-0.1-0.2-0.3c-0.2-0.3-0.4-0.4-0.6-0.4c-0.2,0-0.3,0.1-0.4,0.2c-0.1,0.1-0.2,0.3-0.2,0.5
			c0,0.2,0,0.3,0.1,0.5c0.1,0.2,0.3,0.4,0.6,0.8c0.5,0.5,0.7,1,0.7,1.4s-0.2,0.8-0.6,1.2s-0.8,0.5-1.4,0.5c-0.5,0-0.9-0.1-1.1-0.3
			s-0.4-0.5-0.4-0.7c0-0.1,0-0.3,0.1-0.4s0.2-0.1,0.3-0.1c0.1,0,0.2,0,0.3,0.1s0.1,0.2,0.1,0.3c0,0,0,0.1,0,0.2c0,0.1,0,0.1,0,0.1
			c0,0.1,0.1,0.3,0.2,0.4c0.1,0.1,0.3,0.1,0.5,0.1c0.2,0,0.4,0,0.6-0.1s0.3-0.2,0.4-0.3s0.1-0.3,0.1-0.5c0-0.1,0-0.3-0.1-0.4
			c-0.1-0.2-0.3-0.4-0.6-0.7c-0.4-0.5-0.6-0.9-0.6-1.4c0-0.4,0.2-0.8,0.5-1.1C67.8,29.4,68.2,29.2,68.7,29.2z"/>
		<path class="st1" d="M71.7,28.3l1-0.4l-0.4,1.8h1.3l-0.1,0.4h-1.3l-0.5,2.1c-0.2,0.6-0.3,1.1-0.3,1.3c0,0.1,0,0.2,0.1,0.2
			c0,0,0.1,0.1,0.2,0.1c0.1,0,0.3-0.1,0.6-0.2c0.3-0.2,0.7-0.4,1-0.7l0.2,0.3c-0.9,0.7-1.5,1.1-1.8,1.3c-0.3,0.2-0.5,0.2-0.7,0.2
			c-0.2,0-0.3-0.1-0.4-0.2c-0.1-0.1-0.1-0.3-0.1-0.5c0-0.3,0.1-0.8,0.2-1.4l0.6-2.5h-1l0.1-0.4h1L71.7,28.3z"/>
		<path class="st1" d="M77.3,32.9l0.2,0.3c-1,1-1.9,1.5-2.6,1.5c-0.3,0-0.5-0.1-0.7-0.3s-0.2-0.5-0.2-1c0-0.9,0.3-1.8,0.8-2.7
			c0.6-1,1.3-1.5,2.2-1.5c0.3,0,0.5,0.1,0.7,0.2c0.2,0.1,0.2,0.4,0.2,0.6c0,0.3-0.1,0.5-0.3,0.8c-0.2,0.3-0.5,0.5-1,0.8
			c-0.2,0.1-0.7,0.4-1.5,0.7c0,0.2-0.1,0.4-0.1,0.6c0,0.3,0,0.5,0.1,0.6c0.1,0.1,0.2,0.2,0.4,0.2c0.2,0,0.4,0,0.6-0.1
			C76.4,33.6,76.8,33.3,77.3,32.9z M75.1,32c0.7-0.3,1.2-0.6,1.5-1c0.2-0.2,0.3-0.5,0.3-0.7c0-0.2,0-0.3-0.1-0.4
			c-0.1-0.1-0.2-0.2-0.4-0.2c-0.2,0-0.3,0.1-0.4,0.2c-0.2,0.2-0.4,0.4-0.5,0.7C75.3,31.1,75.2,31.6,75.1,32z"/>
	</g>
</g>
<g>
</g>
<g>
</g>
<g>
</g>
<g>
</g>
<g>
</g>
<g>
</g>
</svg>
