<svg id="圖層_1" data-name="圖層 1" xmlns="http://www.w3.org/2000/svg" viewBox="0 0 61.8 25.1"><defs><style>.cls-1{fill:none;}</style></defs><path class="cls-1" d="M10.3,8.7V9c0,.1-.3.3-.8.3H9.4V4.9a3.39,3.39,0,0,1-.6.6l-.2-.1a12.75,12.75,0,0,0,1.7-3.9l1.4.4c0,.1-.2.2-.4.2-.1.2-.2.5-.3.7h.8l.6-.6,1,.9c-.1.1-.2.1-.4.1a13.58,13.58,0,0,1-1.2,1.2H13l.4-.5.8.8a.55.55,0,0,1-.5.3V8.9c0,.1-.4.2-.7.2h-.2V8.7Zm-.4.7a2.26,2.26,0,0,1-.3,2.4.75.75,0,0,1-.9,0,.52.52,0,0,1,.3-.7,2.39,2.39,0,0,0,.7-1.6Zm.9-6.2A10.47,10.47,0,0,1,10,4.3l.5.2h.9c.2-.4.3-1,.5-1.4H10.8Zm-.5,3.2h.8V4.9h-.8Zm0,1.9h.8V6.7h-.8Zm.4,1.2c1.5,1.4.5,2.8-.1,2a4.52,4.52,0,0,0-.1-2Zm1.1-.1c1.9,1.1,1,2.6.3,1.9a4.14,4.14,0,0,0-.5-1.9Zm.1-4.5V6.4h.9V4.9Zm.9,3.4V6.7h-.9V8.3Zm.1,1c2.3.8,1.4,2.5.7,1.9a3.26,3.26,0,0,0-.8-1.8Zm5.4-1.5a10.92,10.92,0,0,1,1.1.9c0,.1-.1.2-.3.2H16.9v2.8c0,.1-.3.3-.8.3h-.2V8.9H14l-.1-.3h1.9V6.5H14.2l-.1-.3h1.7V4.3H14L13.9,4h2.5a18.29,18.29,0,0,0,.8-2.5l1.4.4c0,.1-.2.2-.4.2a8,8,0,0,1-1.5,1.8h.8l.6-.7a10.92,10.92,0,0,1,1.1.9c0,.1-.1.2-.3.2H16.8V6.2h.6l.6-.8a10.92,10.92,0,0,1,1.1.9c0,.1-.1.2-.3.2H16.9V8.6h.9Zm-4-6.2c2.5.9,1.6,2.7.7,2a3.55,3.55,0,0,0-.8-1.9Z"/><path class="cls-1" d="M24,6.6l1.1.8a.59.59,0,0,1-.5.2v3.7c0,.1-.5.3-.9.3h-.2v-.9h-2v.7c0,.1-.4.3-.9.3h-.2v-5l1.1.4h1.8Zm-.4,3.9v-3h-2v3Zm-.1-4.4c0,.1-.5.3-.9.3h-.2V1.8l1.1.5h3.4l.5-.6,1.1.9a.59.59,0,0,1-.5.2V6.1c0,.1-.5.3-.9.3h-.2V5.5H23.3v.6Zm0-3.5V5.2h3.6V2.6Zm6.9,4.9a.59.59,0,0,1-.5.2v3.8c0,.1-.5.3-.9.3h-.2v-.9h-2v.8c0,.1-.4.3-.9.3h-.2V6.7l1.1.4h1.9l.5-.6Zm-1.5,3v-3h-2v3Z"/><path class="cls-1" d="M40.6,2a10.92,10.92,0,0,1,1.1.9c0,.1-.1.2-.3.2H38.9v.8c0,.1-.4.2-.9.2h-.2v-1H35v.6l1.4.6a.59.59,0,0,1-.5.2l-.3.3h2.7l.7-.5,1.1.9c-.1.1-.3.1-.6.2a11.77,11.77,0,0,1-3.6,2.9h2.9l.5-.6,1.1.9a.59.59,0,0,1-.5.2v2.8c0,.1-.6.3-.9.3h0v-.7H35v.5c0,.1-.3.3-.9.3h-.2V9.1a13.7,13.7,0,0,1-2.4.7l-.1-.2a18.61,18.61,0,0,0,2.5-1V7.8l.9.3a12.61,12.61,0,0,0,3.5-2.9H35.5a4.35,4.35,0,0,1-.7.6c2,.6,1.1,2,.3,1.4A3.08,3.08,0,0,0,34.6,6a7.93,7.93,0,0,1-2.5,1.5L32,7.4A10.52,10.52,0,0,0,35,4a2,2,0,0,1-.8.1H34v-1H31.3l-.1-.3H34V1.5l1.4.1c0,.1-.1.3-.4.3v.8h2.8V1.5l1.5.1c0,.1-.1.3-.4.3v.8H40ZM35.3,8.6c-.1,0-.2.1-.3.1v2.1h4V8.6Z"/><path class="cls-1" d="M48.8,4c0,.1-.2.2-.5.2,1,1.3,3,2.1,4.8,2.6V7a1.3,1.3,0,0,0-.9,1A7.54,7.54,0,0,1,48,4.4a10.33,10.33,0,0,1-5.6,3.9l-.1-.2c2.1-1,4.1-3,4.6-4.5Zm-6.1-.8-.1-.3h2.7V1.6l1.4.1c0,.1-.1.3-.4.3v.9h2.8V1.6l1.5.1c0,.1-.1.3-.4.3v.9h1l.6-.8s.7.6,1.1.9c0,.1-.1.2-.3.2H50.1v.9c0,.1-.4.3-.9.3H49V3.2H46.2v.9c0,.1-.4.3-.9.3h-.2V3.2Zm4.1,6c-.1.1-.2.2-.4.1a7.49,7.49,0,0,1-3.1,2.2l-.1-.1a7.78,7.78,0,0,0,2.3-2.9ZM48.4,8v2.7c0,.8-.2,1.2-1.5,1.3a1.17,1.17,0,0,0-.2-.7,1.51,1.51,0,0,0-.9-.4v-.2s1.1.1,1.3.1.2-.1.2-.2V8H44.6l-.1-.3h2.8V6.2l1.4.1c0,.2-.1.2-.3.3V7.7h.9l.6-.7a10.92,10.92,0,0,1,1.1.9c0,.1-.1.2-.3.2H48.4Zm.6.7c3.8.7,3.3,3.2,2.1,2.5a7.51,7.51,0,0,0-2.2-2.5Z"/><path class="cls-1" d="M20.8,15.7h-.2c0-.2.1-.3.1-.4s0-.1-.1-.2a.37.37,0,0,0-.3-.1h-1c0,.1-.1.2-.1.4a8.11,8.11,0,0,1-.3,1.1h1a.35.35,0,0,0,.1-.2h.2c-.1.3-.1.6-.2.9h-.2V17c0-.1,0-.1-.1-.1h-1c-.1.3-.2.7-.3,1a4.65,4.65,0,0,1-.3.9h.8l.2.2H18a1.7,1.7,0,0,0-.7.1v-.2c.2,0,.3-.1.4-.1s.1-.1.2-.2a6.8,6.8,0,0,0,.4-1.3l.5-2.1a1.88,1.88,0,0,0-.8.2,2.65,2.65,0,0,0-.6.5,1.45,1.45,0,0,0-.2.7v.3c0,.1,0,.1.1.2a.37.37,0,0,1,.1.3c0,.1,0,.1-.1.1a.35.35,0,0,1-.2.1c-.1,0-.2,0-.2-.1s-.1-.3-.1-.6a2.11,2.11,0,0,1,.5-1.3,1.82,1.82,0,0,1,1.4-.6h1.8a.37.37,0,0,0,.3-.1C20.9,15.3,20.9,15.6,20.8,15.7Z"/><path class="cls-1" d="M21.5,19H21l.2-.9c.1-.5.2-.9.3-1.3v-.2c0-.1,0-.1-.1-.1a.31.31,0,0,0-.2.1c-.1,0-.2.2-.4.4l-.1-.1a1.79,1.79,0,0,1,.7-.5,1.69,1.69,0,0,1,.5-.2H22v.3l-.1.5a3.92,3.92,0,0,1,.8-1,.76.76,0,0,1,.4-.2c.1,0,.1,0,.2.1a.35.35,0,0,1,.1.2c0,.1,0,.1-.1.2a1.44,1.44,0,0,0-.3.2c-.2.1-.3.1-.4.2l-.4.4c-.2.2-.2.3-.3.4s-.1.4-.2.9Z"/><path class="cls-1" d="M24.8,18.1l.1.2a2.75,2.75,0,0,1-1.5.8.52.52,0,0,1-.4-.2.75.75,0,0,1-.1-.5,3,3,0,0,1,.5-1.5,1.24,1.24,0,0,1,1.2-.8c.2,0,.3,0,.4.1a.37.37,0,0,1,.1.3.52.52,0,0,1-.2.4,3.81,3.81,0,0,1-.6.5,4.13,4.13,0,0,1-.9.4v.4c0,.2,0,.3.1.3s.1.1.2.1a.37.37,0,0,0,.3-.1C24.3,18.5,24.5,18.3,24.8,18.1Zm-1.2-.5c.4-.2.7-.3.8-.5a.76.76,0,0,0,.2-.4c0-.1,0-.2-.1-.2s-.1-.1-.2-.1a.37.37,0,0,0-.3.1,1.38,1.38,0,0,0-.3.4C23.7,17.1,23.6,17.3,23.6,17.6Z"/><path class="cls-1" d="M26.9,16a.75.75,0,0,1,.5.1c.1.1.2.2.2.3s0,.1-.1.2a.35.35,0,0,1-.2.1h-.1l-.1-.1c-.1-.2-.2-.2-.3-.2a.43.43,0,0,0-.3.7l.4.4a1,1,0,0,1,.4.8.71.71,0,0,1-.3.6,1.91,1.91,0,0,1-.8.3.85.85,0,0,1-.6-.2.76.76,0,0,1-.2-.4c0-.1,0-.1.1-.2s.1-.1.2-.1.1,0,.2.1a.35.35,0,0,1,.1.2v.2c0,.1,0,.1.1.2s.1.1.3.1a.37.37,0,0,0,.3-.1c.1-.1.2-.1.2-.2a.5.5,0,0,0,0-.6,1.38,1.38,0,0,1-.3-.4c-.2-.3-.4-.5-.4-.8a.86.86,0,0,1,.3-.6C26.4,16.1,26.7,16,26.9,16Z"/><path class="cls-1" d="M30.5,18.2l.1.1a4.35,4.35,0,0,1-.7.6.76.76,0,0,1-.4.1c-.1,0-.1,0-.2-.1a.37.37,0,0,1-.1-.3.76.76,0,0,1,.1-.4,3.63,3.63,0,0,1,.3-1.1,1.75,1.75,0,0,0,.1-.5c0-.1,0-.1-.1-.1a.76.76,0,0,0-.4.1,1.21,1.21,0,0,0-.5.5.85.85,0,0,0-.2.6L28.2,19h-.5c.1-.4.2-.7.3-1l.5-2.2a3,3,0,0,1,.4-1,2.65,2.65,0,0,1,.6-.5,1.85,1.85,0,0,1,.7-.2c.1,0,.2,0,.2.1s.1.1.1.2,0,.1-.1.2-.1.1-.2.1h-.6a.37.37,0,0,0-.3.1c-.1.1-.1.3-.2.6l-.4,1.7a5.5,5.5,0,0,1,.9-.7c.2-.1.3-.2.5-.2s.2,0,.2.1.1.1.1.2v.2a4.08,4.08,0,0,1-.2.7,8.49,8.49,0,0,1-.3.9v.4H30c.1,0,.2-.1.3-.2S30.4,18.3,30.5,18.2Z"/><path class="cls-1" d="M35.3,18.8V19H33.8a1.7,1.7,0,0,0-.7.1v-.2a4.33,4.33,0,0,0,.5-.1.77.77,0,0,0,.2-.3,9.31,9.31,0,0,0,.4-1.4l.4-1.8v-.1h-.3a2.79,2.79,0,0,0-1,.1,1.27,1.27,0,0,0-.6.4,1.42,1.42,0,0,0-.2.6v.2l.2.2a.31.31,0,0,1,.1.2c0,.1,0,.1-.1.2a.35.35,0,0,1-.2.1c-.1,0-.2,0-.2-.1a.75.75,0,0,1-.1-.5,1.14,1.14,0,0,1,.3-.8,1.34,1.34,0,0,1,.7-.6,3.59,3.59,0,0,1,1.1-.2,4.59,4.59,0,0,1,1,.1,5.64,5.64,0,0,1,.7.1.37.37,0,0,0,.3-.1c.1-.1.1-.1.1-.2v-.2c0-.1,0-.1.1-.2a.35.35,0,0,1,.2-.1c.1,0,.1,0,.2.1s.1.1.1.2-.1.3-.3.5a2,2,0,0,1-.9.2h-.5c0,.1-.1.4-.2.9l-.3,1.2-.2.5-.2.8h.9Z"/><path class="cls-1" d="M38.4,16h.2l-.3.9L38,18.1a1.09,1.09,0,0,0-.1.5c0,.1,0,.1.1.1a.31.31,0,0,0,.2-.1c.1-.1.3-.2.4-.3l.1.1c-.3.2-.4.4-.5.4a.76.76,0,0,1-.4.2h-.4v-.2l.1-.5a4.35,4.35,0,0,1-.7.6c-.2.1-.3.2-.5.2A.37.37,0,0,1,36,19a.75.75,0,0,1-.1-.5,3.09,3.09,0,0,1,.2-.8,2.18,2.18,0,0,1,.5-.8,3,3,0,0,1,.7-.5,1.48,1.48,0,0,1,.7-.1h.2Zm-.5.5h-.3a.76.76,0,0,0-.5.2.92.92,0,0,0-.4.6,2.92,2.92,0,0,0-.2.9c0,.2,0,.3.1.3s.1.1.2.1.3-.1.5-.3a1.61,1.61,0,0,0,.4-.7Z"/><path class="cls-1" d="M40.5,16a.75.75,0,0,1,.5.1c.1.1.2.2.2.3s0,.1-.1.2a.35.35,0,0,1-.2.1h-.1l-.1-.1c-.1-.2-.2-.2-.3-.2a.37.37,0,0,0-.3.1c-.1.1-.1,0-.1.1a.37.37,0,0,0,.1.3l.4.4a1,1,0,0,1,.4.8.71.71,0,0,1-.3.6,1.91,1.91,0,0,1-.8.3.85.85,0,0,1-.6-.2.76.76,0,0,1-.2-.4c0-.1,0-.1.1-.2s.1-.1.2-.1.1,0,.2.1a.35.35,0,0,1,.1.2v.2c0,.1,0,.1.1.2s.1.1.3.1a.37.37,0,0,0,.3-.1c.1-.1.2-.1.2-.2a.5.5,0,0,0,0-.6,1.38,1.38,0,0,1-.3-.4c-.2-.3-.4-.5-.4-.8a.86.86,0,0,1,.3-.6C40,16.1,40.2,16,40.5,16Z"/><path class="cls-1" d="M42.2,15.5l.6-.2-.2,1h.7l-.1.2h-.7l-.3,1.2a4.08,4.08,0,0,0-.2.7v.1h.1a.37.37,0,0,0,.3-.1A2.09,2.09,0,0,0,43,18l.1.2a6.31,6.31,0,0,1-1,.7.76.76,0,0,1-.4.1c-.1,0-.2,0-.2-.1s-.1-.2-.1-.3a2.81,2.81,0,0,1,.1-.8l.4-1.4h-.6l.1-.2H42Z"/><path class="cls-1" d="M45.4,18.1l.1.2a2.75,2.75,0,0,1-1.5.8.52.52,0,0,1-.4-.2.75.75,0,0,1-.1-.5,3,3,0,0,1,.5-1.5,1.24,1.24,0,0,1,1.2-.8c.2,0,.3,0,.4.1a.37.37,0,0,1,.1.3.52.52,0,0,1-.2.4,3.81,3.81,0,0,1-.6.5,4.13,4.13,0,0,1-.9.4v.4c0,.2,0,.3.1.3s.1.1.2.1a.37.37,0,0,0,.3-.1A2,2,0,0,0,45.4,18.1Zm-1.3-.5c.4-.2.7-.3.8-.5a.76.76,0,0,0,.2-.4c0-.1,0-.2-.1-.2s-.1-.1-.2-.1a.37.37,0,0,0-.3.1,1.38,1.38,0,0,0-.3.4C44.3,17.1,44.2,17.3,44.1,17.6Z"/></svg>