<svg id="圖層_1" data-name="圖層 1" xmlns="http://www.w3.org/2000/svg" viewBox="0 0 61.8 25.1"><defs><style>.cls-1{fill:#fff;}</style></defs><path class="cls-1" d="M10.5,10.9v.3c0,.1-.3.3-.8.3H9.6V7.1a3.39,3.39,0,0,1-.6.6l-.2-.1a12.75,12.75,0,0,0,1.7-3.9l1.4.4c0,.1-.2.2-.4.2-.1.2-.2.5-.3.7H12l.6-.6,1,.9c-.1.1-.2.1-.4.1A13.58,13.58,0,0,1,12,6.6h1.2l.4-.5.8.8a.55.55,0,0,1-.5.3v3.9c0,.1-.4.2-.7.2H13v-.4Zm-.4.7A2.26,2.26,0,0,1,9.8,14a.75.75,0,0,1-.9,0,.52.52,0,0,1,.3-.7,2.39,2.39,0,0,0,.7-1.6ZM11,5.4a10.47,10.47,0,0,1-.8,1.1l.5.2h.9c.2-.4.3-1,.5-1.4H11Zm-.5,3.2h.8V7.1h-.8Zm0,1.9h.8V8.9h-.8Zm.4,1.2c1.5,1.4.5,2.8-.1,2a4.52,4.52,0,0,0-.1-2Zm1.1-.1c1.9,1.1,1,2.6.3,1.9a4.14,4.14,0,0,0-.5-1.9Zm.1-4.5V8.6H13V7.1Zm.9,3.4V8.9h-.9v1.6Zm.1,1c2.3.8,1.4,2.5.7,1.9a3.26,3.26,0,0,0-.8-1.8ZM18.5,10a10.92,10.92,0,0,1,1.1.9c0,.1-.1.2-.3.2H17.1v2.8c0,.1-.3.3-.8.3h-.2V11.1H14.2l-.1-.3H16V8.7H14.4l-.1-.3H16V6.5H14.2l-.1-.3h2.5a18.29,18.29,0,0,0,.8-2.5l1.4.4c0,.1-.2.2-.4.2a8,8,0,0,1-1.5,1.8h.8l.6-.7a10.92,10.92,0,0,1,1.1.9c0,.1-.1.2-.3.2H17V8.4h.6l.6-.8a10.92,10.92,0,0,1,1.1.9c0,.1-.1.2-.3.2H17.1v2.1H18Zm-4-6.2c2.5.9,1.6,2.7.7,2a3.55,3.55,0,0,0-.8-1.9Z"/><path class="cls-1" d="M24.2,8.8l1.1.8a.59.59,0,0,1-.5.2v3.7c0,.1-.5.3-.9.3h-.2v-.9h-2v.7c0,.1-.4.3-.9.3h-.2v-5l1.1.4h1.8Zm-.4,3.9v-3h-2v3Zm-.1-4.4c0,.1-.5.3-.9.3h-.2V4l1.1.5h3.4l.5-.6,1.1.9a.59.59,0,0,1-.5.2V8.3c0,.1-.5.3-.9.3h-.2V7.7H23.5v.6Zm0-3.5V7.4h3.6V4.8Zm6.9,4.9a.59.59,0,0,1-.5.2v3.8c0,.1-.5.3-.9.3H29v-.9H27v.8c0,.1-.4.3-.9.3h-.2V8.9l1.1.4h1.9l.5-.6Zm-1.5,3v-3h-2v3Z"/><path class="cls-1" d="M40.8,4.2a10.92,10.92,0,0,1,1.1.9c0,.1-.1.2-.3.2H39.1v.8c0,.1-.4.2-.9.2H38v-1H35.2v.6l1.4.6a.59.59,0,0,1-.5.2l-.3.3h2.7l.7-.5,1.1.9c-.1.1-.3.1-.6.2a11.77,11.77,0,0,1-3.6,2.9H39l.5-.6,1.1.9a.59.59,0,0,1-.5.2v2.8c0,.1-.6.3-.9.3h0v-.7h-4v.5c0,.1-.3.3-.9.3h-.2V11.3a13.7,13.7,0,0,1-2.4.7l-.1-.2a18.61,18.61,0,0,0,2.5-1V10l.9.3a12.61,12.61,0,0,0,3.5-2.9H35.7A4.35,4.35,0,0,1,35,8c2,.6,1.1,2,.3,1.4a3.08,3.08,0,0,0-.5-1.2,7.93,7.93,0,0,1-2.5,1.5l-.1-.1a10.52,10.52,0,0,0,3-3.4,2,2,0,0,1-.8.1h-.2v-1H31.5L31.4,5h2.8V3.7l1.4.1c0,.1-.1.3-.4.3v.8H38V3.7l1.5.1c0,.1-.1.3-.4.3v.8h1.1Zm-5.3,6.6c-.1,0-.2.1-.3.1V13h4V10.8Z"/><path class="cls-1" d="M49,6.2c0,.1-.2.2-.5.2,1,1.3,3,2.1,4.8,2.6v.2a1.3,1.3,0,0,0-.9,1,7.54,7.54,0,0,1-4.2-3.6,10.33,10.33,0,0,1-5.6,3.9l-.1-.2c2.1-1,4.1-3,4.6-4.5Zm-6.1-.8-.1-.3h2.7V3.8l1.4.1c0,.1-.1.3-.4.3v.9h2.8V3.8l1.5.1c0,.1-.1.3-.4.3v.9h1l.6-.8s.7.6,1.1.9c0,.1-.1.2-.3.2H50.3v.9c0,.1-.4.3-.9.3h-.2V5.4H46.4v.9c0,.1-.4.3-.9.3h-.2V5.4Zm4.1,6c-.1.1-.2.2-.4.1a7.49,7.49,0,0,1-3.1,2.2l-.1-.1a7.78,7.78,0,0,0,2.3-2.9Zm1.6-1.2v2.7c0,.8-.2,1.2-1.5,1.3a1.17,1.17,0,0,0-.2-.7,1.51,1.51,0,0,0-.9-.4v-.2s1.1.1,1.3.1.2-.1.2-.2V10.2H44.8l-.1-.3h2.8V8.4l1.4.1c0,.2-.1.2-.3.3V9.9h.9l.6-.7a10.92,10.92,0,0,1,1.1.9c0,.1-.1.2-.3.2H48.6Zm.6.7c3.8.7,3.3,3.2,2.1,2.5a7.51,7.51,0,0,0-2.2-2.5Z"/><path d="M20.6,17.9h-.2c0-.2.1-.3.1-.4s0-.1-.1-.2a.37.37,0,0,0-.3-.1h-1c0,.1-.1.2-.1.4a8.11,8.11,0,0,1-.3,1.1h1a.35.35,0,0,0,.1-.2H20c-.1.3-.1.6-.2.9h-.2v-.2c0-.1,0-.1-.1-.1h-1c-.1.3-.2.7-.3,1a4.65,4.65,0,0,1-.3.9h.8l.2.2H17.8a1.7,1.7,0,0,0-.7.1v-.2c.2,0,.3-.1.4-.1s.1-.1.2-.2a6.8,6.8,0,0,0,.4-1.3l.5-2.1a1.88,1.88,0,0,0-.8.2,2.65,2.65,0,0,0-.6.5,1.45,1.45,0,0,0-.2.7v.3c0,.1,0,.1.1.2a.37.37,0,0,1,.1.3c0,.1,0,.1-.1.1a.35.35,0,0,1-.2.1c-.1,0-.2,0-.2-.1s-.1-.3-.1-.6a2.11,2.11,0,0,1,.5-1.3,1.82,1.82,0,0,1,1.4-.6h1.8a.37.37,0,0,0,.3-.1C20.7,17.5,20.7,17.8,20.6,17.9Z"/><path d="M21.3,21.2h-.5l.2-.9c.1-.5.2-.9.3-1.3v-.2c0-.1,0-.1-.1-.1a.31.31,0,0,0-.2.1c-.1,0-.2.2-.4.4l-.1-.1a1.79,1.79,0,0,1,.7-.5,1.69,1.69,0,0,1,.5-.2h.1v.3l-.1.5a3.92,3.92,0,0,1,.8-1,.76.76,0,0,1,.4-.2c.1,0,.1,0,.2.1a.35.35,0,0,1,.1.2c0,.1,0,.1-.1.2a1.44,1.44,0,0,0-.3.2c-.2.1-.3.1-.4.2l-.4.4c-.2.2-.2.3-.3.4s-.1.4-.2.9Z"/><path d="M24.6,20.3l.1.2a2.75,2.75,0,0,1-1.5.8.52.52,0,0,1-.4-.2.75.75,0,0,1-.1-.5,3,3,0,0,1,.5-1.5,1.24,1.24,0,0,1,1.2-.8c.2,0,.3,0,.4.1a.37.37,0,0,1,.1.3.52.52,0,0,1-.2.4,3.81,3.81,0,0,1-.6.5,4.13,4.13,0,0,1-.9.4v.4c0,.2,0,.3.1.3s.1.1.2.1a.37.37,0,0,0,.3-.1C24.1,20.7,24.3,20.5,24.6,20.3Zm-1.2-.5c.4-.2.7-.3.8-.5a.76.76,0,0,0,.2-.4c0-.1,0-.2-.1-.2s-.1-.1-.2-.1a.37.37,0,0,0-.3.1,1.38,1.38,0,0,0-.3.4C23.5,19.3,23.4,19.5,23.4,19.8Z"/><path d="M26.7,18.2a.75.75,0,0,1,.5.1c.1.1.2.2.2.3s0,.1-.1.2a.35.35,0,0,1-.2.1H27l-.1-.1c-.1-.2-.2-.2-.3-.2a.43.43,0,0,0-.3.7l.4.4a1,1,0,0,1,.4.8.71.71,0,0,1-.3.6,1.91,1.91,0,0,1-.8.3.85.85,0,0,1-.6-.2.76.76,0,0,1-.2-.4c0-.1,0-.1.1-.2s.1-.1.2-.1.1,0,.2.1a.35.35,0,0,1,.1.2V21c0,.1,0,.1.1.2s.1.1.3.1a.37.37,0,0,0,.3-.1c.1-.1.2-.1.2-.2a.5.5,0,0,0,0-.6,1.38,1.38,0,0,1-.3-.4c-.2-.3-.4-.5-.4-.8a.86.86,0,0,1,.3-.6C26.2,18.3,26.5,18.2,26.7,18.2Z"/><path d="M30.3,20.4l.1.1a4.35,4.35,0,0,1-.7.6.76.76,0,0,1-.4.1c-.1,0-.1,0-.2-.1a.37.37,0,0,1-.1-.3.76.76,0,0,1,.1-.4,3.63,3.63,0,0,1,.3-1.1,1.75,1.75,0,0,0,.1-.5c0-.1,0-.1-.1-.1a.76.76,0,0,0-.4.1,1.21,1.21,0,0,0-.5.5.85.85,0,0,0-.2.6L28,21.2h-.5c.1-.4.2-.7.3-1l.5-2.2a3,3,0,0,1,.4-1,2.65,2.65,0,0,1,.6-.5,1.85,1.85,0,0,1,.7-.2c.1,0,.2,0,.2.1s.1.1.1.2,0,.1-.1.2-.1.1-.2.1h-.6a.37.37,0,0,0-.3.1c-.1.1-.1.3-.2.6l-.4,1.7a5.5,5.5,0,0,1,.9-.7c.2-.1.3-.2.5-.2s.2,0,.2.1.1.1.1.2v.2a4.08,4.08,0,0,1-.2.7,8.49,8.49,0,0,1-.3.9v.4h.1c.1,0,.2-.1.3-.2S30.2,20.5,30.3,20.4Z"/><path d="M35.1,21v.2H33.6a1.7,1.7,0,0,0-.7.1v-.2a4.33,4.33,0,0,0,.5-.1.77.77,0,0,0,.2-.3,9.31,9.31,0,0,0,.4-1.4l.4-1.8v-.1h-.3a2.79,2.79,0,0,0-1,.1,1.27,1.27,0,0,0-.6.4,1.42,1.42,0,0,0-.2.6v.2l.2.2a.31.31,0,0,1,.1.2c0,.1,0,.1-.1.2a.35.35,0,0,1-.2.1c-.1,0-.2,0-.2-.1a.75.75,0,0,1-.1-.5,1.14,1.14,0,0,1,.3-.8,1.34,1.34,0,0,1,.7-.6,3.59,3.59,0,0,1,1.1-.2,4.59,4.59,0,0,1,1,.1,5.64,5.64,0,0,1,.7.1.37.37,0,0,0,.3-.1c.1-.1.1-.1.1-.2v-.2c0-.1,0-.1.1-.2a.35.35,0,0,1,.2-.1c.1,0,.1,0,.2.1s.1.1.1.2-.1.3-.3.5a2,2,0,0,1-.9.2h-.5c0,.1-.1.4-.2.9l-.3,1.2-.2.5-.2.8h.9Z"/><path d="M38.2,18.2h.2l-.3.9-.3,1.2a1.09,1.09,0,0,0-.1.5c0,.1,0,.1.1.1a.31.31,0,0,0,.2-.1c.1-.1.3-.2.4-.3l.1.1c-.3.2-.4.4-.5.4a.76.76,0,0,1-.4.2h-.4V21l.1-.5a4.35,4.35,0,0,1-.7.6c-.2.1-.3.2-.5.2a.37.37,0,0,1-.3-.1.75.75,0,0,1-.1-.5,3.09,3.09,0,0,1,.2-.8,2.18,2.18,0,0,1,.5-.8,3,3,0,0,1,.7-.5,1.48,1.48,0,0,1,.7-.1H38Zm-.5.5h-.3a.76.76,0,0,0-.5.2.92.92,0,0,0-.4.6,2.92,2.92,0,0,0-.2.9c0,.2,0,.3.1.3s.1.1.2.1.3-.1.5-.3a1.61,1.61,0,0,0,.4-.7Z"/><path d="M40.3,18.2a.75.75,0,0,1,.5.1c.1.1.2.2.2.3s0,.1-.1.2a.35.35,0,0,1-.2.1h-.1l-.1-.1c-.1-.2-.2-.2-.3-.2a.37.37,0,0,0-.3.1c-.1.1-.1,0-.1.1a.37.37,0,0,0,.1.3l.4.4a1,1,0,0,1,.4.8.71.71,0,0,1-.3.6,1.91,1.91,0,0,1-.8.3A.85.85,0,0,1,39,21a.76.76,0,0,1-.2-.4c0-.1,0-.1.1-.2s.1-.1.2-.1.1,0,.2.1a.35.35,0,0,1,.1.2v.2c0,.1,0,.1.1.2s.1.1.3.1a.37.37,0,0,0,.3-.1c.1-.1.2-.1.2-.2a.5.5,0,0,0,0-.6,1.38,1.38,0,0,1-.3-.4c-.2-.3-.4-.5-.4-.8a.86.86,0,0,1,.3-.6C39.8,18.3,40,18.2,40.3,18.2Z"/><path d="M42,17.7l.6-.2-.2,1h.7l-.1.2h-.7L42,19.9a4.08,4.08,0,0,0-.2.7v.1h.1a.37.37,0,0,0,.3-.1,2.09,2.09,0,0,0,.6-.4l.1.2a6.31,6.31,0,0,1-1,.7.76.76,0,0,1-.4.1c-.1,0-.2,0-.2-.1s-.1-.2-.1-.3a2.81,2.81,0,0,1,.1-.8l.4-1.4h-.6l.1-.2h.6Z"/><path d="M45.2,20.3l.1.2a2.75,2.75,0,0,1-1.5.8.52.52,0,0,1-.4-.2.75.75,0,0,1-.1-.5,3,3,0,0,1,.5-1.5,1.24,1.24,0,0,1,1.2-.8c.2,0,.3,0,.4.1a.37.37,0,0,1,.1.3.52.52,0,0,1-.2.4,3.81,3.81,0,0,1-.6.5,4.13,4.13,0,0,1-.9.4v.4c0,.2,0,.3.1.3s.1.1.2.1a.37.37,0,0,0,.3-.1A2,2,0,0,0,45.2,20.3Zm-1.3-.5c.4-.2.7-.3.8-.5a.76.76,0,0,0,.2-.4c0-.1,0-.2-.1-.2s-.1-.1-.2-.1a.37.37,0,0,0-.3.1,1.38,1.38,0,0,0-.3.4C44.1,19.3,44,19.5,43.9,19.8Z"/></svg>