<?xml version="1.0" encoding="utf-8"?>
<!-- Generator: Adobe Illustrator 25.2.0, SVG Export Plug-In . SVG Version: 6.00 Build 0)  -->
<svg version="1.1" id="圖層_1" xmlns="http://www.w3.org/2000/svg" xmlns:xlink="http://www.w3.org/1999/xlink" x="0px" y="0px"
	 viewBox="0 0 61.8 16.9" style="enable-background:new 0 0 61.8 16.9;" xml:space="preserve">
<style type="text/css">
	.st0{fill:#FFFFFF;}
</style>
<path class="st0" d="M10.5,7.2v0.3c0,0.1-0.3,0.3-0.8,0.3H9.6V3.4C9.4,3.6,9.2,3.8,9,4L8.8,3.9c0.8-1.2,1.4-2.5,1.7-3.9l1.4,0.4
	c0,0.1-0.2,0.2-0.4,0.2c-0.1,0.2-0.2,0.5-0.3,0.7H12l0.6-0.6l1,0.9c-0.1,0.1-0.2,0.1-0.4,0.1c-0.4,0.4-0.8,0.8-1.2,1.2h1.2l0.4-0.5
	l0.8,0.8c-0.1,0.2-0.3,0.3-0.5,0.3v3.9c0,0.1-0.4,0.2-0.7,0.2H13V7.2L10.5,7.2z M10.1,7.9c0.4,0.8,0.3,1.7-0.3,2.4
	c-0.3,0.2-0.6,0.2-0.9,0c-0.1-0.3,0-0.6,0.3-0.7c0,0,0,0,0,0c0.4-0.4,0.7-1,0.7-1.6L10.1,7.9z M11,1.7c-0.2,0.4-0.5,0.8-0.8,1.1
	L10.7,3h0.9c0.2-0.4,0.3-1,0.5-1.4H11V1.7z M10.5,4.9h0.8V3.4h-0.8V4.9z M10.5,6.8h0.8V5.2h-0.8V6.8z M10.9,8c1.5,1.4,0.5,2.8-0.1,2
	c0.1-0.7,0.1-1.3-0.1-2H10.9z M12,7.9c1.9,1.1,1,2.6,0.3,1.9c0-0.7-0.2-1.3-0.5-1.9H12z M12.1,3.4v1.5H13V3.4L12.1,3.4z M13,6.8V5.2
	h-0.9v1.6H13z M13.1,7.8c2.3,0.8,1.4,2.5,0.7,1.9C13.7,9,13.4,8.4,13,7.9L13.1,7.8z M18.5,6.3c0.4,0.3,0.8,0.6,1.1,0.9
	c0,0.1-0.1,0.2-0.3,0.2h-2.2v2.8c0,0.1-0.3,0.3-0.8,0.3h-0.2V7.4h-1.9l-0.1-0.3H16V5h-1.6l-0.1-0.3H16V2.8h-1.8l-0.1-0.3h2.5
	c0.3-0.8,0.6-1.6,0.8-2.5l1.4,0.4c0,0.1-0.2,0.2-0.4,0.2c-0.4,0.7-0.9,1.3-1.5,1.8h0.8l0.6-0.7c0.4,0.3,0.8,0.6,1.1,0.9
	c0,0.1-0.1,0.2-0.3,0.2H17v1.9h0.6l0.6-0.8c0.4,0.3,0.8,0.6,1.1,0.9C19.3,4.9,19.2,5,19,5h-1.9v2.1H18L18.5,6.3z M14.5,0.1
	c2.5,0.9,1.6,2.7,0.7,2c-0.1-0.7-0.4-1.4-0.8-1.9L14.5,0.1z"/>
<path class="st0" d="M24.2,5.1l1.1,0.8C25.2,6,25,6.1,24.8,6.1v3.7c0,0.1-0.5,0.3-0.9,0.3h-0.2V9.2h-2v0.7c0,0.1-0.4,0.3-0.9,0.3
	h-0.2v-5l1.1,0.4h1.8L24.2,5.1z M23.8,9V6h-2v3H23.8z M23.7,4.6c0,0.1-0.5,0.3-0.9,0.3h-0.2V0.3l1.1,0.5h3.4l0.5-0.6l1.1,0.9
	c-0.1,0.1-0.3,0.2-0.5,0.2v3.3c0,0.1-0.5,0.3-0.9,0.3h-0.2V4h-3.6v0.6L23.7,4.6z M23.7,1.1v2.6h3.6V1.1L23.7,1.1z M30.6,6
	c-0.1,0.1-0.3,0.2-0.5,0.2V10c0,0.1-0.5,0.3-0.9,0.3H29V9.4h-2v0.8c0,0.1-0.4,0.3-0.9,0.3h-0.2V5.2L27,5.6h1.9L29.4,5L30.6,6z
	 M29.1,9V6h-2v3H29.1z"/>
<path class="st0" d="M40.8,0.5c0.4,0.3,0.8,0.6,1.1,0.9c0,0.1-0.1,0.2-0.3,0.2h-2.5v0.8c0,0.1-0.4,0.2-0.9,0.2H38v-1h-2.8v0.6
	l1.4,0.6C36.5,2.9,36.3,3,36.1,3l-0.3,0.3h2.7l0.7-0.5l1.1,0.9c-0.1,0.1-0.3,0.1-0.6,0.2c-1,1.2-2.2,2.2-3.6,2.9H39l0.5-0.6l1.1,0.9
	c-0.1,0.1-0.3,0.2-0.5,0.2v2.8c0,0.1-0.6,0.3-0.9,0.3l0,0V9.7h-4v0.5c0,0.1-0.3,0.3-0.9,0.3h-0.2V7.6c-0.8,0.3-1.6,0.5-2.4,0.7
	l-0.1-0.2c0.9-0.3,1.7-0.6,2.5-1V6.3L35,6.6c1.3-0.7,2.5-1.7,3.5-2.9h-2.8c-0.2,0.2-0.4,0.4-0.7,0.6c2,0.6,1.1,2,0.3,1.4
	c-0.1-0.4-0.2-0.8-0.5-1.2c-0.7,0.7-1.6,1.2-2.5,1.5l-0.1-0.1c1.2-0.9,2.3-2.1,3-3.4c-0.3,0.1-0.5,0.1-0.8,0.1h-0.2v-1h-2.7
	l-0.1-0.3h2.8V0l1.4,0.1c0,0.1-0.1,0.3-0.4,0.3v0.8H38V0l1.5,0.1c0,0.1-0.1,0.3-0.4,0.3v0.8h1.1L40.8,0.5z M35.5,7.1
	c-0.1,0-0.2,0.1-0.3,0.1v2.1h4V7.1L35.5,7.1z"/>
<path class="st0" d="M49,2.5c0,0.1-0.2,0.2-0.5,0.2c1,1.3,3,2.1,4.8,2.6v0.2c-0.5,0.1-0.8,0.5-0.9,1c-1.8-0.6-3.3-1.9-4.2-3.6
	c-1.4,1.9-3.3,3.3-5.6,3.9l-0.1-0.2c2.1-1,4.1-3,4.6-4.5L49,2.5z M42.9,1.7l-0.1-0.3h2.7V0.1l1.4,0.1c0,0.1-0.1,0.3-0.4,0.3v0.9h2.8
	V0.1l1.5,0.1c0,0.1-0.1,0.3-0.4,0.3v0.9h1L52,0.6c0,0,0.7,0.6,1.1,0.9c0,0.1-0.1,0.2-0.3,0.2h-2.5v0.9c0,0.1-0.4,0.3-0.9,0.3h-0.2
	V1.7h-2.8v0.9c0,0.1-0.4,0.3-0.9,0.3h-0.2V1.7L42.9,1.7z M47,7.7c-0.1,0.1-0.2,0.2-0.4,0.1c-0.8,1-1.9,1.7-3.1,2.2l-0.1-0.1
	c1-0.8,1.8-1.8,2.3-2.9L47,7.7z M48.6,6.5v2.7c0,0.8-0.2,1.2-1.5,1.3c0-0.2-0.1-0.5-0.2-0.7c-0.2-0.2-0.6-0.4-0.9-0.4V9.2
	c0,0,1.1,0.1,1.3,0.1s0.2-0.1,0.2-0.2V6.5h-2.7l-0.1-0.3h2.8V4.7l1.4,0.1c0,0.2-0.1,0.2-0.3,0.3v1.1h0.9l0.6-0.7
	c0.4,0.3,0.8,0.6,1.1,0.9c0,0.1-0.1,0.2-0.3,0.2L48.6,6.5L48.6,6.5z M49.2,7.2c3.8,0.7,3.3,3.2,2.1,2.5c-0.5-1-1.3-1.8-2.2-2.5H49.2
	z"/>
<path class="st0" d="M20.6,13.2h-0.2c0-0.2,0.1-0.3,0.1-0.4s0-0.1-0.1-0.2c-0.1-0.1-0.2-0.1-0.3-0.1h-1c0,0.1-0.1,0.2-0.1,0.4
	c-0.1,0.4-0.2,0.7-0.3,1.1h1c0.1-0.1,0.1-0.1,0.1-0.2H20c-0.1,0.3-0.1,0.6-0.2,0.9h-0.2v-0.2c0-0.1,0-0.1-0.1-0.1h-1
	c-0.1,0.3-0.2,0.7-0.3,1c-0.1,0.3-0.2,0.6-0.3,0.9h0.8l0.2,0.2h-1.1c-0.2,0-0.5,0-0.7,0.1v-0.2c0.2,0,0.3-0.1,0.4-0.1
	s0.1-0.1,0.2-0.2c0.2-0.4,0.3-0.9,0.4-1.3l0.5-2.1c-0.3,0-0.6,0.1-0.8,0.2c-0.2,0.1-0.4,0.3-0.6,0.5c-0.1,0.2-0.2,0.5-0.2,0.7v0.3
	c0,0.1,0,0.1,0.1,0.2c0.1,0.1,0.1,0.2,0.1,0.3c0,0.1,0,0.1-0.1,0.1c-0.1,0.1-0.1,0.1-0.2,0.1c-0.1,0-0.2,0-0.2-0.1s-0.1-0.3-0.1-0.6
	c0-0.5,0.2-0.9,0.5-1.3c0.4-0.4,0.9-0.6,1.4-0.6h1.8c0.1,0,0.2,0,0.3-0.1C20.7,12.8,20.7,13.1,20.6,13.2z"/>
<path class="st0" d="M21.3,16.5h-0.5l0.2-0.9c0.1-0.5,0.2-0.9,0.3-1.3v-0.2c0-0.1,0-0.1-0.1-0.1c-0.1,0-0.1,0-0.2,0.1
	c-0.1,0-0.2,0.2-0.4,0.4l-0.1-0.1c0.2-0.2,0.4-0.4,0.7-0.5c0.2-0.1,0.3-0.2,0.5-0.2h0.1V14l-0.1,0.5c0.2-0.4,0.5-0.7,0.8-1
	c0.1-0.1,0.2-0.2,0.4-0.2c0.1,0,0.1,0,0.2,0.1c0.1,0.1,0.1,0.1,0.1,0.2c0,0.1,0,0.1-0.1,0.2c-0.1,0.1-0.2,0.1-0.3,0.2
	c-0.2,0.1-0.3,0.1-0.4,0.2L22,14.6c-0.2,0.2-0.2,0.3-0.3,0.4s-0.1,0.4-0.2,0.9L21.3,16.5z"/>
<path class="st0" d="M24.6,15.6l0.1,0.2c-0.4,0.4-0.9,0.7-1.5,0.8c-0.2,0-0.3-0.1-0.4-0.2c-0.1-0.1-0.1-0.3-0.1-0.5
	c0-0.5,0.2-1.1,0.5-1.5c0.2-0.5,0.7-0.8,1.2-0.8c0.2,0,0.3,0,0.4,0.1c0.1,0.1,0.1,0.2,0.1,0.3c0,0.2-0.1,0.3-0.2,0.4
	c-0.2,0.2-0.4,0.4-0.6,0.5c-0.3,0.2-0.6,0.3-0.9,0.4v0.4c0,0.2,0,0.3,0.1,0.3s0.1,0.1,0.2,0.1c0.1,0,0.2,0,0.3-0.1
	C24.1,16,24.3,15.8,24.6,15.6z M23.4,15.1c0.4-0.2,0.7-0.3,0.8-0.5c0.1-0.1,0.2-0.2,0.2-0.4c0-0.1,0-0.2-0.1-0.2s-0.1-0.1-0.2-0.1
	c-0.1,0-0.2,0-0.3,0.1c-0.1,0.1-0.2,0.2-0.3,0.4C23.5,14.6,23.4,14.8,23.4,15.1z"/>
<path class="st0" d="M26.7,13.5c0.2,0,0.4,0,0.5,0.1c0.1,0.1,0.2,0.2,0.2,0.3s0,0.1-0.1,0.2c-0.1,0.1-0.1,0.1-0.2,0.1H27l-0.1-0.1
	c-0.1-0.2-0.2-0.2-0.3-0.2c-0.2,0-0.4,0.2-0.4,0.5c0,0.1,0,0.2,0.1,0.2l0.4,0.4c0.3,0.2,0.4,0.5,0.4,0.8c0,0.2-0.1,0.5-0.3,0.6
	c-0.2,0.2-0.5,0.3-0.8,0.3c-0.2,0-0.4-0.1-0.6-0.2c-0.1-0.1-0.2-0.2-0.2-0.4c0-0.1,0-0.1,0.1-0.2s0.1-0.1,0.2-0.1s0.1,0,0.2,0.1
	c0.1,0.1,0.1,0.1,0.1,0.2v0.2c0,0.1,0,0.1,0.1,0.2c0.1,0.1,0.1,0.1,0.3,0.1c0.1,0,0.2,0,0.3-0.1c0.1-0.1,0.2-0.1,0.2-0.2
	c0.1-0.2,0.1-0.4,0-0.6c-0.1-0.1-0.2-0.2-0.3-0.4C26.2,15,26,14.8,26,14.5c0-0.2,0.1-0.4,0.3-0.6C26.2,13.6,26.5,13.5,26.7,13.5z"/>
<path class="st0" d="M30.3,15.7l0.1,0.1c-0.2,0.2-0.4,0.4-0.7,0.6c-0.1,0.1-0.3,0.1-0.4,0.1c-0.1,0-0.1,0-0.2-0.1
	C29,16.3,29,16.2,29,16.1c0-0.1,0-0.3,0.1-0.4c0-0.4,0.1-0.8,0.3-1.1c0.1-0.2,0.1-0.3,0.1-0.5c0-0.1,0-0.1-0.1-0.1
	c-0.1,0-0.3,0-0.4,0.1c-0.2,0.1-0.4,0.3-0.5,0.5c-0.1,0.2-0.2,0.4-0.2,0.6L28,16.5h-0.5c0.1-0.4,0.2-0.7,0.3-1l0.5-2.2
	c0.1-0.4,0.2-0.7,0.4-1c0.2-0.2,0.4-0.4,0.6-0.5c0.2-0.1,0.5-0.2,0.7-0.2c0.1,0,0.2,0,0.2,0.1s0.1,0.1,0.1,0.2s0,0.1-0.1,0.2
	s-0.1,0.1-0.2,0.1h-0.6c-0.1,0-0.2,0-0.3,0.1c-0.1,0.1-0.1,0.3-0.2,0.6l-0.4,1.7c0.3-0.3,0.6-0.5,0.9-0.7c0.2-0.1,0.3-0.2,0.5-0.2
	s0.2,0,0.2,0.1s0.1,0.1,0.1,0.2v0.2c0,0.2-0.1,0.5-0.2,0.7c-0.1,0.3-0.2,0.6-0.3,0.9v0.4h0.1c0.1,0,0.2-0.1,0.3-0.2
	C30.2,15.9,30.2,15.8,30.3,15.7z"/>
<path class="st0" d="M35.1,16.3v0.2h-1.5c-0.2,0-0.5,0-0.7,0.1v-0.2c0.2,0,0.3-0.1,0.5-0.1c0.1-0.1,0.2-0.2,0.2-0.3
	c0.2-0.5,0.3-0.9,0.4-1.4l0.4-1.8v-0.1h-0.3c-0.3,0-0.7,0-1,0.1c-0.2,0.1-0.4,0.2-0.6,0.4c-0.1,0.2-0.2,0.4-0.2,0.6V14l0.2,0.2
	c0.1,0.1,0.1,0.1,0.1,0.2c0,0.1,0,0.1-0.1,0.2c-0.1,0.1-0.1,0.1-0.2,0.1c-0.1,0-0.2,0-0.2-0.1C32,14.5,32,14.3,32,14.1
	c0-0.3,0.1-0.6,0.3-0.8c0.2-0.3,0.4-0.5,0.7-0.6c0.4-0.1,0.7-0.2,1.1-0.2c0.3,0,0.7,0,1,0.1c0.2,0,0.5,0.1,0.7,0.1
	c0.1,0,0.2,0,0.3-0.1c0.1-0.1,0.1-0.1,0.1-0.2v-0.2c0-0.1,0-0.1,0.1-0.2c0.1-0.1,0.1-0.1,0.2-0.1c0.1,0,0.1,0,0.2,0.1
	s0.1,0.1,0.1,0.2s-0.1,0.3-0.3,0.5c-0.3,0.1-0.6,0.2-0.9,0.2h-0.5c0,0.1-0.1,0.4-0.2,0.9L34.6,15l-0.2,0.5l-0.2,0.8
	C34.2,16.3,35.1,16.3,35.1,16.3z"/>
<path class="st0" d="M38.2,13.5h0.2l-0.3,0.9l-0.3,1.2c-0.1,0.2-0.1,0.3-0.1,0.5c0,0.1,0,0.1,0.1,0.1c0.1,0,0.1,0,0.2-0.1
	c0.1-0.1,0.3-0.2,0.4-0.3l0.1,0.1c-0.3,0.2-0.4,0.4-0.5,0.4c-0.1,0.1-0.2,0.2-0.4,0.2h-0.4v-0.2l0.1-0.5c-0.2,0.2-0.4,0.4-0.7,0.6
	c-0.2,0.1-0.3,0.2-0.5,0.2c-0.1,0-0.2,0-0.3-0.1c-0.1-0.1-0.1-0.3-0.1-0.5c0-0.3,0.1-0.5,0.2-0.8c0.1-0.3,0.3-0.6,0.5-0.8
	c0.2-0.2,0.4-0.4,0.7-0.5c0.2-0.1,0.5-0.1,0.7-0.1H38L38.2,13.5z M37.7,14h-0.3c-0.2,0-0.4,0.1-0.5,0.2c-0.2,0.1-0.4,0.4-0.4,0.6
	c-0.1,0.3-0.2,0.6-0.2,0.9c0,0.2,0,0.3,0.1,0.3s0.1,0.1,0.2,0.1s0.3-0.1,0.5-0.3c0.2-0.2,0.3-0.4,0.4-0.7L37.7,14z"/>
<path class="st0" d="M40.3,13.5c0.2,0,0.4,0,0.5,0.1c0.1,0.1,0.2,0.2,0.2,0.3s0,0.1-0.1,0.2c-0.1,0.1-0.1,0.1-0.2,0.1h-0.1l-0.1-0.1
	c-0.1-0.2-0.2-0.2-0.3-0.2c-0.1,0-0.2,0-0.3,0.1c-0.1,0.1-0.1,0-0.1,0.1c0,0.1,0,0.2,0.1,0.3l0.4,0.4c0.3,0.2,0.4,0.5,0.4,0.8
	c0,0.2-0.1,0.5-0.3,0.6c-0.2,0.2-0.5,0.3-0.8,0.3c-0.2,0-0.4-0.1-0.6-0.2c-0.1-0.1-0.2-0.2-0.2-0.4c0-0.1,0-0.1,0.1-0.2
	s0.1-0.1,0.2-0.1s0.1,0,0.2,0.1c0.1,0.1,0.1,0.1,0.1,0.2v0.2c0,0.1,0,0.1,0.1,0.2c0.1,0.1,0.1,0.1,0.3,0.1c0.1,0,0.2,0,0.3-0.1
	c0.1-0.1,0.2-0.1,0.2-0.2c0.1-0.2,0.1-0.4,0-0.6c-0.1-0.1-0.2-0.2-0.3-0.4c-0.2-0.3-0.4-0.5-0.4-0.8c0-0.2,0.1-0.4,0.3-0.6
	C39.8,13.6,40,13.5,40.3,13.5z"/>
<path class="st0" d="M42,13l0.6-0.2l-0.2,1h0.7L43,14h-0.7L42,15.2c-0.1,0.2-0.2,0.5-0.2,0.7V16h0.1c0.1,0,0.2,0,0.3-0.1
	c0.2-0.1,0.4-0.2,0.6-0.4l0.1,0.2c-0.3,0.3-0.6,0.5-1,0.7c-0.1,0.1-0.3,0.1-0.4,0.1c-0.1,0-0.2,0-0.2-0.1c0-0.1-0.1-0.2-0.1-0.3
	c0-0.3,0-0.5,0.1-0.8l0.4-1.4h-0.6l0.1-0.2h0.6L42,13z"/>
<path class="st0" d="M45.2,15.6l0.1,0.2c-0.4,0.4-0.9,0.7-1.5,0.8c-0.2,0-0.3-0.1-0.4-0.2c-0.1-0.1-0.1-0.3-0.1-0.5
	c0-0.5,0.2-1.1,0.5-1.5c0.2-0.5,0.7-0.8,1.2-0.8c0.2,0,0.3,0,0.4,0.1c0.1,0.1,0.1,0.2,0.1,0.3c0,0.2-0.1,0.3-0.2,0.4
	c-0.2,0.2-0.4,0.4-0.6,0.5c-0.3,0.2-0.6,0.3-0.9,0.4v0.4c0,0.2,0,0.3,0.1,0.3s0.1,0.1,0.2,0.1c0.1,0,0.2,0,0.3-0.1
	C44.7,15.9,45,15.8,45.2,15.6z M43.9,15.1c0.4-0.2,0.7-0.3,0.8-0.5c0.1-0.1,0.2-0.2,0.2-0.4c0-0.1,0-0.2-0.1-0.2s-0.1-0.1-0.2-0.1
	c-0.1,0-0.2,0-0.3,0.1c-0.1,0.1-0.2,0.2-0.3,0.4C44.1,14.6,44,14.8,43.9,15.1z"/>
</svg>
